<svg width="57" height="90" viewBox="0 0 57 90" fill="none" xmlns="http://www.w3.org/2000/svg">
<g id="Frame 25">
<path id="Vector" opacity="0.2" d="M16.1761 32.4212C25.1099 32.4212 32.3522 25.1635 32.3522 16.2106C32.3522 7.25774 25.1099 0 16.1761 0C7.2423 0 0 7.25774 0 16.2106C0 25.1635 7.2423 32.4212 16.1761 32.4212Z" fill="#6B7F2A"/>
<g id="Vector_2">
<path d="M47.1296 12.7706C46.7042 12.4022 46.2734 12.0301 45.8445 11.6669L43.6175 10.1426M47.1296 12.7706L23.6708 7.25342C29.4047 5.68808 35.0619 6.1783 40.5458 8.58065C41.1929 8.8668 41.8162 9.20386 42.4386 9.54038C42.7351 9.70081 43.0316 9.86117 43.3306 10.0158C43.3917 10.0475 43.4564 10.0745 43.5211 10.1015C43.5534 10.115 43.5852 10.1285 43.6175 10.1426M47.1296 12.7706C49.8094 15.0915 51.9291 17.8475 53.4323 21.0538L47.1296 12.7706ZM47.1296 12.7706L53.4323 21.0538L47.1296 12.7706ZM43.6175 10.1426L43.557 10.28C43.5528 10.2782 43.5487 10.2763 43.5445 10.2745M43.6175 10.1426L43.5331 10.2666L43.5373 10.2696L43.5415 10.2726L43.5445 10.2745M43.5445 10.2745L43.5463 10.2756L43.5504 10.2785L43.5546 10.2815L43.5588 10.2844L43.5636 10.2874L43.5678 10.2904L43.572 10.2934L43.5762 10.2964L43.581 10.2993L43.5852 10.3023L43.5894 10.3053L43.5936 10.3083L43.5984 10.3113L43.6026 10.3142L43.6068 10.3172L43.6116 10.3202L43.6158 10.3232L43.6199 10.3262L43.6241 10.3291L43.6289 10.3321L43.6331 10.3351L43.6373 10.3381L43.6415 10.341L43.6463 10.344L43.6505 10.347L43.6547 10.35L43.6589 10.353L43.6637 10.3559L43.6679 10.3589L43.6721 10.3619L43.6763 10.3648L43.6811 10.3678L43.6852 10.3708L43.6894 10.3738L43.6936 10.3768L43.6984 10.3797L43.7026 10.3827L43.7068 10.3857L43.711 10.3887L43.7158 10.3916L43.72 10.3946L43.7242 10.3976L43.729 10.4006L43.7332 10.4036L43.7374 10.4065L43.7416 10.4095L43.7464 10.4125L43.7506 10.4155L43.7547 10.4185L43.7589 10.4214L43.7637 10.4244L43.7679 10.4274L43.7721 10.4303L43.7763 10.4333L43.7811 10.4363L43.7853 10.4393L43.7895 10.4422L43.7937 10.4452L43.7985 10.4482L43.8027 10.4512L43.8069 10.4542L43.8111 10.4571L43.8159 10.4601L43.8201 10.4631L43.8242 10.4661L43.8284 10.4691L43.8332 10.472L43.8374 10.475L43.8416 10.478L43.8464 10.481L43.8506 10.484L43.8548 10.4869L43.859 10.4899L43.8638 10.4928L43.868 10.4958L43.8722 10.4988L43.8764 10.5018L43.8812 10.5048L43.8854 10.5077L43.8896 10.5107L43.8937 10.5137L43.8985 10.5167L43.9027 10.5197L43.9069 10.5226L43.9111 10.5256L43.9159 10.5286L43.9201 10.5316L43.9243 10.5346L43.9285 10.5375L43.9333 10.5405L43.9375 10.5435L43.9417 10.5465L43.9465 10.5495L43.9507 10.5524L43.9549 10.5554L43.959 10.5583L43.9638 10.5613L43.968 10.5644L43.9722 10.5673L43.9764 10.5703L43.9812 10.5732L43.9854 10.5762L43.9896 10.5792L43.9938 10.5822L43.9986 10.5852L44.0028 10.5881L44.007 10.5911L44.0112 10.5941L44.016 10.5971L44.0202 10.6001L44.0244 10.603L44.0285 10.606L44.0333 10.609L44.0375 10.612L44.0417 10.615L44.0459 10.6179L44.0507 10.6209L44.0549 10.6239L44.0591 10.6269L44.0639 10.6298L44.0681 10.6328L44.0723 10.6358L44.0765 10.6387L44.0813 10.6417L44.0855 10.6447L44.0897 10.6477L44.0938 10.6507L44.0986 10.6536L44.1028 10.6566L44.107 10.6596L44.1112 10.6626L44.116 10.6656L44.1202 10.6685L44.1244 10.6715L44.1286 10.6745L44.1334 10.6775L44.1376 10.6804L44.1418 10.6834L44.146 10.6864L44.1508 10.6894L44.155 10.6924L44.1592 10.6953L44.1633 10.6983L44.1681 10.7013L44.1723 10.7042L44.1765 10.7072L44.1813 10.7102L44.1855 10.7132L44.1897 10.7162L44.1939 10.7191L44.1987 10.7221L44.2029 10.7251L44.2071 10.7281L44.2113 10.731L44.2161 10.734L44.2203 10.737L44.2245 10.74L44.2286 10.743L44.2334 10.7459L44.2376 10.7489L44.2418 10.7519L44.246 10.7549L44.2508 10.7579L44.255 10.7608L44.2592 10.7638L44.2634 10.7667L44.2682 10.7697L44.2724 10.7727L44.2766 10.7757L44.2814 10.7787L44.2856 10.7816L44.2898 10.7846L44.294 10.7876L44.2987 10.7906L44.3029 10.7936L44.3071 10.7965L44.3113 10.7995L44.3161 10.8025L44.3203 10.8055L44.3245 10.8085L44.3287 10.8114L44.3335 10.8144L44.3377 10.8174L44.3419 10.8204L44.3461 10.8234L44.3509 10.8263L44.3551 10.8293L44.3593 10.8322L44.3634 10.8352L44.3682 10.8383L44.3724 10.8412L44.3766 10.8442L44.3808 10.8471L44.3856 10.8501L44.3898 10.8531L44.394 10.8561L44.3988 10.8591L44.403 10.862L44.4072 10.865L44.4114 10.868L44.4162 10.871L44.4204 10.874L44.4246 10.8769L44.4288 10.8799L44.4335 10.8829L44.4377 10.8859L44.4419 10.8889L44.4461 10.8918L44.4509 10.8948L44.4551 10.8977L44.4593 10.9008L44.4635 10.9038L44.4683 10.9067L44.4725 10.9097L44.4767 10.9126L44.4809 10.9156L44.4857 10.9186L44.4899 10.9216L44.4941 10.9246L44.4989 10.9275L44.503 10.9305L44.5072 10.9335L44.5114 10.9365L44.5162 10.9395L44.5204 10.9424L44.5246 10.9454L44.5288 10.9484L44.5336 10.9514L44.5378 10.9543L44.542 10.9573L44.5462 10.9603L44.551 10.9633L44.5552 10.9663L44.5594 10.9692L44.5636 10.9722L44.5683 10.9752L44.5725 10.9781L44.5767 10.9811L44.5809 10.9841L44.5857 10.9871L44.5899 10.9901L44.5941 10.993L44.5983 10.996L44.6031 10.999L44.6073 11.002L44.6115 11.0049L44.6163 11.0079L44.6205 11.0109L44.6247 11.0139L44.6289 11.0169L44.6337 11.0198L44.6378 11.0228L44.642 11.0258L44.6462 11.0288L44.651 11.0318L44.6552 11.0347L44.6594 11.0377L44.6636 11.0407L44.6684 11.0436L44.6726 11.0466L44.6768 11.0496L44.681 11.0526L44.6858 11.0555L44.69 11.0585L44.6942 11.0615L44.6984 11.0645L44.7031 11.0675L44.7073 11.0704L44.7115 11.0734L44.7157 11.0764L44.7205 11.0794L44.7247 11.0824L44.7289 11.0853L44.7337 11.0883L44.7379 11.0913L44.7421 11.0943L44.7463 11.0973L44.7511 11.1002L44.7553 11.1032L44.7595 11.1061L44.7637 11.1091L44.7685 11.1121L44.7726 11.1151L44.7768 11.1181L44.781 11.121L44.7858 11.124L44.79 11.127L44.7942 11.13L44.7984 11.133L44.8032 11.1359L44.8074 11.1389L44.8116 11.1419L44.8158 11.1449L44.8206 11.1479L44.8248 11.1508L44.829 11.1538L44.8338 11.1568L44.8379 11.1598L44.8421 11.1628L44.8463 11.1657L44.8511 11.1687L44.8553 11.1716L44.8595 11.1747L44.8637 11.1777L44.8685 11.1806L44.8727 11.1836L44.8769 11.1865L44.8811 11.1895L44.8859 11.1925L44.8901 11.1955L44.8943 11.1985L44.8985 11.2014L44.9033 11.2044L44.9074 11.2074L44.9116 11.2104L44.9158 11.2134L44.9206 11.2163L44.9248 11.2193L44.929 11.2223L44.9332 11.2253L44.938 11.2283L44.9422 11.2312L44.9464 11.2342L44.9512 11.2372L44.9554 11.2402L44.9596 11.2431L44.9638 11.2461L44.9686 11.2491L44.9728 11.252L44.9769 11.255L44.9811 11.258L44.9859 11.261L44.9901 11.264L44.9943 11.2669L44.9985 11.2699L45.0033 11.2729L45.0075 11.2759L45.0117 11.2789L45.0159 11.2818L45.0207 11.2848L45.0249 11.2878L45.0291 11.2908L45.0333 11.2937L45.0381 11.2967L45.0422 11.2997L45.0464 11.3027L45.0506 11.3057L45.0554 11.3086L45.0596 11.3116L45.0638 11.3146L45.0686 11.3175L45.0728 11.3205L45.077 11.3235L45.0812 11.3265L45.086 11.3295L45.0902 11.3324L45.0944 11.3354L45.0986 11.3384L45.1034 11.3414L45.1076 11.3443L45.1117 11.3473L45.1159 11.3503L45.1207 11.3533L45.1249 11.3563L45.1291 11.3592L45.1333 11.3622L45.1381 11.3652L45.1423 11.3682L45.1465 11.3712L45.1507 11.3741L45.1555 11.3771L45.1597 11.3801L45.1639 11.383L45.1687 11.386L45.1729 11.389L45.177 11.392L45.1812 11.3949L45.186 11.3979L45.1902 11.4009L45.1944 11.4039L45.1986 11.4069L45.2034 11.4098L45.2076 11.4128L45.2118 11.4158L45.216 11.4188L45.2208 11.4218L45.225 11.4247L45.2292 11.4277L45.2334 11.4307L45.2382 11.4337L45.2424 11.4367L45.2465 11.4396L45.2507 11.4426L45.2555 11.4455L45.2597 11.4486L45.2639 11.4516L45.2681 11.4545L45.2729 11.4575L45.2771 11.4604L45.2813 11.4634L45.2861 11.4664L45.2903 11.4694L45.2945 11.4724L45.2987 11.4753L45.3035 11.4783L45.3077 11.4813L45.3118 11.4843L45.316 11.4873L45.3208 11.4902L45.325 11.4932L45.3292 11.4962L45.3334 11.4992L45.3382 11.5022L45.3424 11.5051L45.3466 11.5081L45.3508 11.5111L45.3556 11.5141L45.3598 11.5171L45.364 11.52L45.3682 11.523L45.373 11.5259L45.3772 11.5289L45.3813 11.5319L45.3855 11.5349L45.3903 11.5379L45.3945 11.5408L45.3987 11.5438L45.4035 11.5468L45.4077 11.5498L45.4119 11.5528L45.4161 11.5557L45.4209 11.5587L45.4251 11.5617L45.4293 11.5647L45.4335 11.5677L45.4383 11.5706L45.4425 11.5736L45.4467 11.5766L45.4508 11.5796L45.4556 11.5825L45.4598 11.5855L45.464 11.5885L45.4682 11.5914L45.473 11.5944L45.4772 11.5974L45.4814 11.6004L45.4856 11.6034L45.4904 11.6063L45.4946 11.6093L45.4988 11.6123L45.5036 11.6153L45.5078 11.6183L45.512 11.6212L45.5161 11.6242L45.5209 11.6272L45.5251 11.6302L45.5293 11.6331L45.5335 11.6361L45.5383 11.6391L45.5425 11.6421L45.5467 11.6451L45.5509 11.648L45.5557 11.651L45.5599 11.654L45.5641 11.6569L45.5683 11.6599L45.5731 11.6629L45.5773 11.6659L45.5815 11.6688L45.5856 11.6718L45.5904 11.6748L45.5946 11.6778L45.5988 11.6808L45.603 11.6837L45.6078 11.6867L45.612 11.6897L45.6162 11.6927L45.621 11.6957L45.6252 11.6986L45.6294 11.7016L45.6336 11.7046L45.6384 11.7076L45.6426 11.7106L45.6468 11.7135L45.6509 11.7165L45.6557 11.7194L45.6599 11.7224L45.6641 11.7255L45.6683 11.7284L45.6731 11.7314L45.6773 11.7343L45.6815 11.7373L45.6857 11.7403L45.6905 11.7433L45.6947 11.7463L45.6989 11.7492L45.7031 11.7522L45.7079 11.7552L45.7121 11.7582L45.7163 11.7612L45.7204 11.7641L45.7252 11.7671L45.7294 11.7701L45.7336 11.7731L45.7384 11.7761L45.7426 11.779L45.7468 11.782L45.751 11.7849L45.7534 11.7866C46.18 12.1476 46.6083 12.5175 47.0319 12.8843C49.6962 15.1919 51.8033 17.9312 53.2969 21.1176C56.2721 27.4703 56.6531 33.9627 54.4106 40.5671C53.4748 43.3403 52.0501 45.8564 50.1815 48.116C45.8678 53.3245 40.3333 56.32 33.6091 57.1858C33.1521 57.2458 32.6911 57.28 32.2197 57.3155C31.9822 57.3335 31.742 57.3515 31.4982 57.3731L31.3615 57.3851L31.3617 57.5226C31.3632 58.6976 31.3684 59.8671 31.3735 61.0367C31.3882 65.5174 31.4015 69.9976 31.4148 74.4777L31.4149 74.5257C31.4282 78.9896 31.4415 83.4536 31.4561 87.9187C31.4563 88.163 31.4322 88.3762 31.3571 88.5479C31.2849 88.7124 31.163 88.8463 30.9466 88.9315C30.8538 88.967 30.745 88.9808 30.6175 88.9868C30.5764 88.9892 30.5311 88.9904 30.4839 88.9916C30.4142 88.9934 30.3404 88.9952 30.2702 89L30.2691 88.9994L30.2682 88.9988L30.2673 88.9982L30.2664 88.9976L30.2654 88.997L30.2645 88.9964L30.2636 88.9958L30.2626 88.9946L30.2617 88.994L30.2607 88.9934L30.2599 88.9928L30.2589 88.9922L30.258 88.9916L30.257 88.991L30.2561 88.9904L30.2552 88.9898L30.2542 88.9892L30.2533 88.9886L30.2524 88.988L30.2515 88.9874L30.2505 88.9868L30.2495 88.9862L30.2486 88.9856L30.2477 88.9844L30.2468 88.9838L30.2458 88.9832L30.2449 88.9826L30.244 88.982L30.2431 88.9814L30.2421 88.9808L30.2412 88.9802L30.2403 88.9796L30.2393 88.979L30.2384 88.9784L30.2374 88.9778L30.2365 88.9772L30.2356 88.9766L30.2347 88.976L30.2337 88.9754L30.2328 88.9742L30.2319 88.9736L30.2309 88.973L30.23 88.9724L30.2291 88.9718L30.2282 88.9712L30.2272 88.9706L30.2263 88.97L30.2253 88.9694L30.2244 88.9688L30.2235 88.9682L30.2225 88.9676L30.2216 88.967L30.2207 88.9664L30.2198 88.9658L30.2188 88.9652L30.2179 88.964L30.217 88.9634L30.216 88.9628L30.2151 88.9622L30.2141 88.9616L30.2132 88.961L30.2123 88.9604L30.2114 88.9598L30.2104 88.9592L30.2095 88.9586L30.2086 88.958L30.2076 88.9574L30.2067 88.9568L30.2057 88.9562L30.2048 88.9556L30.2039 88.955L30.203 88.9538L30.202 88.9532L30.2011 88.9526L30.2002 88.952L30.1992 88.9514L30.1983 88.9508L30.1974 88.9502L30.1965 88.9496L30.1955 88.949L30.1946 88.9484L30.1936 88.9478L30.1928 88.9472L30.1918 88.9466L30.1908 88.9459L30.1899 88.9454L30.189 88.9447L30.1881 88.9436L30.1871 88.943L30.1862 88.9424L30.1853 88.9417L30.1844 88.9411L30.1834 88.9406L30.1824 88.9399L30.1815 88.9394L30.1806 88.9388L30.1797 88.9381L30.1787 88.9375L30.1778 88.9369L30.1769 88.9363L30.1759 88.9357L30.175 88.9352L30.1741 88.9345L30.1732 88.9333L30.1722 88.9327L30.1713 88.9321L30.1703 88.9315L30.1694 88.9309L30.1685 88.9303L30.1675 88.9297L30.1666 88.9291L30.1657 88.9285L30.1648 88.9279L30.1638 88.9273L30.1629 88.9267L30.162 88.9261L30.1611 88.9255L30.1601 88.9249L30.1591 88.9243L30.1582 88.9231L30.1573 88.9225L30.1564 88.9219L30.1554 88.9213L30.1545 88.9207L30.1536 88.9201L30.1527 88.9195L30.1517 88.9189L30.1508 88.9183L30.1499 88.9177L30.1489 88.9171L30.148 88.9165L30.147 88.9159L30.1461 88.9153L30.1452 88.9147L30.1443 88.9141L30.1433 88.9129L30.1424 88.9123L30.1415 88.9117L30.1405 88.9111L30.1396 88.9105L30.1386 88.9099L30.1377 88.9093L30.1368 88.9087L30.1359 88.9081L30.1349 88.9075L30.134 88.9069L30.1331 88.9063L30.1321 88.9057L30.1312 88.9051L30.1303 88.9045L30.1294 88.9039L30.1284 88.9027L30.1275 88.9021L30.1265 88.9015L30.1256 88.9009L30.1247 88.9003L30.1237 88.8997L30.1228 88.8991L30.1219 88.8985L30.121 88.8979L30.12 88.8973L30.1191 88.8967L30.1182 88.8961L30.1172 88.8955L30.1163 88.8949L30.1153 88.8943L30.1144 88.8937L30.1135 88.8925L30.1126 88.8919L30.1116 88.8913L30.1107 88.8907L30.1098 88.8901L30.1088 88.8895L30.1079 88.8889L30.107 88.8883L30.1061 88.8877L30.1051 88.8871L30.1042 88.8865L30.1032 88.8859L30.1023 88.8853L30.1014 88.8847L30.1004 88.8841L30.0995 88.8835L30.0986 88.8823L30.0977 88.8817L30.0967 88.8811L30.0958 88.8805L30.0949 88.8799L30.094 88.8793L30.093 88.8787L30.092 88.8781L30.0911 88.8775L30.0902 88.8769L30.0893 88.8763L30.0883 88.8757L30.0874 88.8751L30.0865 88.8745L30.0855 88.8739L30.0846 88.8733L30.0837 88.8721L30.0828 88.8715L30.0818 88.8709L30.0809 88.8703L30.0799 88.8697L30.079 88.8691L30.0781 88.8685L30.0771 88.8679L30.0762 88.8673L30.0753 88.8667L30.0744 88.8661L30.0734 88.8655L30.0725 88.8649L30.0715 88.8643L30.0706 88.8637L30.0697 88.8631L30.0688 88.8619L30.0678 88.8613L30.0669 88.8607L30.066 88.8601L30.065 88.8595L30.0641 88.8589L30.0632 88.8583L30.0623 88.8577L30.0613 88.8571L30.0604 88.8565L30.0594 88.8559L30.0585 88.8553L30.0576 88.8547L30.0566 88.8541L30.0557 88.8535L30.0548 88.8529L30.0539 88.8517L30.0529 88.8511L30.052 88.8505L30.0511 88.8499L30.0501 88.8493L30.0492 88.8487L30.0482 88.8481L30.0473 88.8475L30.0464 88.8469L30.0455 88.8463L30.0445 88.8457L30.0436 88.8451L30.0427 88.8445L30.0417 88.8439L30.0408 88.8433L30.0399 88.8421L30.039 88.8415L30.038 88.8409L30.0371 88.8403L30.0361 88.8397L30.0352 88.8391L30.0343 88.8385L30.0333 88.8379L30.0324 88.8373L30.0315 88.8367L30.0306 88.8361L30.0296 88.8355L30.0287 88.8349L30.0278 88.8343L30.0268 88.8337L30.0259 88.8331L30.0249 88.8319L30.024 88.8313L30.0231 88.8307L30.0222 88.8301L30.0212 88.8295L30.0203 88.8289L30.0194 88.8283L30.0184 88.8277L30.0175 88.8271L30.0165 88.8265L30.0157 88.8259L30.0147 88.8253L30.0138 88.8247L30.0128 88.8241L30.0119 88.8235L30.011 88.8229L30.01 88.8223L30.0091 88.8211L30.0082 88.8205L30.0073 88.8199L30.0063 88.8193L30.0054 88.8187L30.0044 88.8181L30.0035 88.8175L30.0026 88.8169L30.0016 88.8163L30.0007 88.8157L29.9998 88.8151L29.9989 88.8145L29.9979 88.8139L29.997 88.8133L29.9961 88.8127L29.9952 88.8115L29.9942 88.8109L29.9932 88.8103L29.9923 88.8097L29.9914 88.8091L29.9905 88.8085L29.9895 88.8079L29.9886 88.8073L29.9877 88.8067L29.9868 88.8061L29.9858 88.8055L29.9849 88.8049L29.984 88.8043L29.983 88.8037L29.9821 88.8031L29.9811 88.8025L29.9802 88.8013L29.9793 88.8007L29.9784 88.8001L29.9774 88.7995L29.9765 88.7989L29.9756 88.7983L29.9746 88.7977L29.9737 88.7971L29.9728 88.7965L29.9719 88.7959L29.9709 88.7953L29.97 88.7946L29.969 88.7941L29.9681 88.7934L29.9672 88.7929L29.9662 88.7923L29.9653 88.7911L29.9644 88.7905L29.9635 88.7898L29.9625 88.7893L29.9616 88.7887L29.9606 88.788L29.9597 88.7875L29.9588 88.7868L29.9578 88.7862L29.9569 88.7856L29.956 88.785L29.9551 88.7844L29.9541 88.7839L29.9532 88.7832L29.9523 88.7826L29.9513 88.782L29.9504 88.7808L29.9494 88.7802L29.9486 88.7796L29.9476 88.779L29.9467 88.7784L29.9457 88.7778L29.9448 88.7772L29.9439 88.7766L29.9429 88.776L29.942 88.7754L29.9411 88.7748L29.9402 88.7742L29.9392 88.7736L29.9383 88.773L29.9373 88.7724L29.9364 88.7718L29.9355 88.7706L29.9345 88.77L29.9336 88.7694L29.9327 88.7688L29.9318 88.7682L29.9308 88.7676L29.9299 88.767L29.929 88.7664L29.928 88.7658L29.9271 88.7652L29.9261 88.7646L29.9252 88.764L29.9243 88.7634L29.9234 88.7628L29.9224 88.7622L29.9215 88.7616L29.9206 88.7604L29.9196 88.7598L29.9187 88.7592L29.9178 88.7586L29.9169 88.758L29.9159 88.7574L29.915 88.7568L29.914 88.7562L29.9131 88.7556L29.9122 88.755L29.9112 88.7544L29.9103 88.7538L29.9094 88.7532L29.9085 88.7526L29.9075 88.752L29.9066 88.7514L29.9057 88.7502L29.9048 88.7496L29.9038 88.749L29.9028 88.7484L29.9019 88.7478L29.901 88.7472L29.9001 88.7466L29.8991 88.746L29.8982 88.7454L29.8973 88.7448L29.8964 88.7442L29.8954 88.7436L29.8944 88.743L29.8935 88.7424L29.8926 88.7418L29.8917 88.7412L29.8907 88.74L29.8898 88.7394L29.8889 88.7388L29.888 88.7382L29.887 88.7376L29.8861 88.737L29.8852 88.7364L29.8842 88.7358L29.8833 88.7352L29.8823 88.7346L29.8814 88.734L29.8805 88.7334L29.8796 88.7328L29.8786 88.7322L29.8777 88.7316L29.8768 88.731L29.8758 88.7298L29.8749 88.7292L29.874 88.7286L29.8731 88.728L29.8721 88.7274L29.8712 88.7268L29.8702 88.7262L29.8693 88.7256L29.8684 88.725L29.8674 88.7244L29.8665 88.7238L29.8661 88.7232C29.7017 88.4158 29.69 88.0778 29.6872 87.6911C29.6641 77.7372 29.6374 67.7893 29.6054 57.8372V57.836C29.6042 57.7333 29.6014 57.6217 29.5967 57.5016L29.5917 57.3707L29.4619 57.3581C29.2195 57.3341 28.9809 57.3131 28.7444 57.2926C28.3558 57.259 27.9732 57.2254 27.5901 57.1792C24.4877 56.7985 21.5383 55.8997 18.7783 54.4175C12.421 51.0029 8.14391 45.8568 6.07439 38.9581C4.34528 33.206 4.6035 27.5125 6.94526 22.0238C10.1695 14.486 15.7821 9.55827 23.7101 7.3983C29.4095 5.84244 35.0317 6.32894 40.4854 8.71802C41.1273 9.00183 41.7415 9.33403 42.3608 9.66893C42.659 9.83007 42.9579 9.99188 43.2617 10.1492L43.2623 10.1493C43.3288 10.1836 43.4037 10.215 43.4714 10.2434C43.4971 10.2542 43.5217 10.2646 43.5445 10.2745ZM53.4323 21.0538C56.4236 27.4413 56.8071 33.9739 54.5526 40.6156C53.6102 43.4069 52.1765 45.9388 50.2965 48.2119C45.9583 53.4504 40.3891 56.4647 33.6283 57.3347L53.4323 21.0538ZM28.2233 55.5017H28.2241C28.3632 55.5161 28.4862 55.5005 28.5917 55.432C28.6931 55.3654 28.7561 55.2637 28.8071 55.1583L28.8098 55.1523C29.6678 53.1554 30.3012 51.0855 30.5723 48.9129C30.675 48.0865 30.7369 47.2518 30.7989 46.4159C30.8263 46.0459 30.8538 45.6756 30.8848 45.3057L30.8978 45.1505L30.7427 45.1431C30.5262 45.1328 30.4017 45.1239 30.2761 45.1149L30.2715 45.1146C27.8974 45.0184 25.5179 44.9185 23.1473 44.817C23.0422 44.812 22.9378 44.8082 22.8341 44.8043C22.5971 44.7956 22.3636 44.787 22.1321 44.7664L22.131 44.7663C21.7899 44.7383 21.5527 44.5637 21.4168 44.2506C21.3439 44.0843 21.3203 43.9291 21.3393 43.785C21.3582 43.6408 21.4207 43.4977 21.5341 43.3563L21.5357 43.3542C21.7483 43.0793 22.0332 43.0244 22.4115 43.0386C25.7737 43.184 29.1378 43.3265 32.4989 43.4689C33.748 43.5218 34.9967 43.5747 36.2448 43.6278L36.2561 43.6282C36.5399 43.6395 36.8242 43.6508 37.1309 43.6625L37.3123 43.6694L37.2844 43.4894C37.2795 43.4579 37.2751 43.4266 37.2708 43.3955C37.2603 43.32 37.25 43.2462 37.233 43.1754L35.74 35.9126L34.2464 28.6472L32.9387 22.3081L32.9384 22.3067C32.8571 21.9296 32.9033 21.6294 33.1628 21.3902C33.6786 20.9123 34.4771 21.1713 34.633 21.915C34.9225 23.2703 35.1996 24.6334 35.4715 25.9928C35.5125 26.2049 35.5333 26.4157 35.5549 26.6346C35.5672 26.7596 35.5798 26.8873 35.5966 27.0194L35.6129 27.1487L35.7428 27.1506C35.7582 27.1509 35.7739 27.1512 35.7897 27.1516C35.8397 27.1527 35.8919 27.1538 35.9446 27.1517L36.0289 27.1483L36.0696 27.0741C36.2004 26.8356 36.3351 26.5968 36.4703 26.357C36.7673 25.8302 37.0672 25.2984 37.3364 24.7526C38.486 22.4411 39.2801 19.9983 39.8954 17.5005C40.4247 15.3544 40.6706 13.183 40.338 10.9558L40.3378 10.9547C40.3167 10.8195 40.2805 10.6914 40.2054 10.5824C40.1279 10.4701 40.0182 10.3911 39.8734 10.3381C39.5679 10.2265 39.2612 10.1064 38.9529 9.98575C38.3953 9.76757 37.8321 9.54717 37.2596 9.36987C25.696 5.80576 13.5044 11.3479 8.69798 22.3967C6.32943 27.8468 6.09446 33.4624 7.9628 39.1309C10.0451 45.4513 14.1405 50.1039 20.0733 53.1243C22.6424 54.4319 25.3729 55.1891 28.2233 55.5017ZM30.6033 55.3864L30.5183 55.5923L30.7408 55.5935C40.98 55.647 50.9567 48.6811 53.503 37.4135C56.181 25.5616 49.5512 15.7163 42.423 11.7155L42.202 11.5914L42.2003 11.8455C42.2003 11.8599 42.2001 11.8744 42.2 11.8891C42.1993 11.9629 42.1985 12.0395 42.2044 12.1143C42.2761 13.313 42.242 14.5047 42.0366 15.6757C41.4204 19.1786 40.3934 22.5436 38.81 25.7255C38.143 27.0589 37.3757 28.3343 36.4365 29.4892C36.3669 29.5746 36.3305 29.6875 36.3145 29.7906C36.2981 29.8953 36.2999 30.008 36.3214 30.1056C37.2772 34.7904 38.2437 39.4825 39.2083 44.1655C39.306 44.6484 39.2435 44.9661 39.0781 45.1589C38.9122 45.352 38.6048 45.4639 38.106 45.4426C36.428 45.3746 34.7444 45.303 33.0608 45.2314C32.965 45.2255 32.8697 45.2257 32.7725 45.2259C32.7509 45.2259 32.729 45.226 32.7072 45.226L32.5568 45.2259L32.5575 45.3768C32.5727 48.8653 31.9203 52.1879 30.6033 55.3864Z" fill="#3D3935"/>
<path d="M47.1296 12.7706C46.7042 12.4022 46.2734 12.0301 45.8445 11.6669L43.6176 10.1426M47.1296 12.7706L23.6708 7.25342C29.4047 5.68808 35.0619 6.1783 40.5458 8.58065C41.1929 8.8668 41.8163 9.20386 42.4386 9.54038C42.7351 9.70081 43.0316 9.86117 43.3306 10.0158C43.3917 10.0475 43.4564 10.0745 43.5211 10.1015C43.5534 10.115 43.5852 10.1285 43.6176 10.1426M47.1296 12.7706C49.8094 15.0915 51.9291 17.8475 53.4323 21.0538M47.1296 12.7706L53.4323 21.0538M43.6176 10.1426L43.557 10.28C43.5528 10.2782 43.5487 10.2763 43.5445 10.2745M43.6176 10.1426L43.5331 10.2666L43.5373 10.2696L43.5415 10.2726L43.5445 10.2745M53.4323 21.0538C56.4236 27.4413 56.8071 33.9739 54.5526 40.6156C53.6102 43.4069 52.1765 45.9388 50.2965 48.2119C45.9583 53.4504 40.3891 56.4647 33.6283 57.3347L53.4323 21.0538ZM43.5445 10.2745L43.5463 10.2756L43.5505 10.2785L43.5546 10.2815L43.5588 10.2844L43.5636 10.2874L43.5678 10.2904L43.572 10.2934L43.5762 10.2964L43.581 10.2993L43.5852 10.3023L43.5894 10.3053L43.5936 10.3083L43.5984 10.3113L43.6026 10.3142L43.6068 10.3172L43.6116 10.3202L43.6158 10.3232L43.6199 10.3262L43.6241 10.3291L43.6289 10.3321L43.6331 10.3351L43.6373 10.3381L43.6415 10.341L43.6463 10.344L43.6505 10.347L43.6547 10.35L43.6589 10.353L43.6637 10.3559L43.6679 10.3589L43.6721 10.3619L43.6763 10.3648L43.6811 10.3678L43.6853 10.3708L43.6894 10.3738L43.6936 10.3768L43.6984 10.3797L43.7026 10.3827L43.7068 10.3857L43.711 10.3887L43.7158 10.3916L43.72 10.3946L43.7242 10.3976L43.729 10.4006L43.7332 10.4036L43.7374 10.4065L43.7416 10.4095L43.7464 10.4125L43.7506 10.4155L43.7547 10.4185L43.7589 10.4214L43.7637 10.4244L43.7679 10.4274L43.7721 10.4303L43.7763 10.4333L43.7811 10.4363L43.7853 10.4393L43.7895 10.4422L43.7937 10.4452L43.7985 10.4482L43.8027 10.4512L43.8069 10.4542L43.8111 10.4571L43.8159 10.4601L43.8201 10.4631L43.8242 10.4661L43.8284 10.4691L43.8332 10.472L43.8374 10.475L43.8416 10.478L43.8464 10.481L43.8506 10.484L43.8548 10.4869L43.859 10.4899L43.8638 10.4928L43.868 10.4958L43.8722 10.4988L43.8764 10.5018L43.8812 10.5048L43.8854 10.5077L43.8896 10.5107L43.8937 10.5137L43.8985 10.5167L43.9027 10.5197L43.9069 10.5226L43.9111 10.5256L43.9159 10.5286L43.9201 10.5316L43.9243 10.5346L43.9285 10.5375L43.9333 10.5405L43.9375 10.5435L43.9417 10.5465L43.9465 10.5495L43.9507 10.5524L43.9549 10.5554L43.959 10.5583L43.9638 10.5613L43.968 10.5644L43.9722 10.5673L43.9764 10.5703L43.9812 10.5732L43.9854 10.5762L43.9896 10.5792L43.9938 10.5822L43.9986 10.5852L44.0028 10.5881L44.007 10.5911L44.0112 10.5941L44.016 10.5971L44.0202 10.6001L44.0244 10.603L44.0285 10.606L44.0333 10.609L44.0375 10.612L44.0417 10.615L44.0459 10.6179L44.0507 10.6209L44.0549 10.6239L44.0591 10.6269L44.0639 10.6298L44.0681 10.6328L44.0723 10.6358L44.0765 10.6387L44.0813 10.6417L44.0855 10.6447L44.0897 10.6477L44.0938 10.6507L44.0986 10.6536L44.1028 10.6566L44.107 10.6596L44.1112 10.6626L44.116 10.6656L44.1202 10.6685L44.1244 10.6715L44.1286 10.6745L44.1334 10.6775L44.1376 10.6804L44.1418 10.6834L44.146 10.6864L44.1508 10.6894L44.155 10.6924L44.1592 10.6953L44.1633 10.6983L44.1681 10.7013L44.1723 10.7042L44.1765 10.7072L44.1813 10.7102L44.1855 10.7132L44.1897 10.7162L44.1939 10.7191L44.1987 10.7221L44.2029 10.7251L44.2071 10.7281L44.2113 10.731L44.2161 10.734L44.2203 10.737L44.2245 10.74L44.2286 10.743L44.2334 10.7459L44.2376 10.7489L44.2418 10.7519L44.246 10.7549L44.2508 10.7579L44.255 10.7608L44.2592 10.7638L44.2634 10.7667L44.2682 10.7697L44.2724 10.7727L44.2766 10.7757L44.2814 10.7787L44.2856 10.7816L44.2898 10.7846L44.294 10.7876L44.2987 10.7906L44.3029 10.7936L44.3071 10.7965L44.3113 10.7995L44.3161 10.8025L44.3203 10.8055L44.3245 10.8085L44.3287 10.8114L44.3335 10.8144L44.3377 10.8174L44.3419 10.8204L44.3461 10.8234L44.3509 10.8263L44.3551 10.8293L44.3593 10.8322L44.3634 10.8352L44.3682 10.8383L44.3724 10.8412L44.3766 10.8442L44.3808 10.8471L44.3856 10.8501L44.3898 10.8531L44.394 10.8561L44.3988 10.8591L44.403 10.862L44.4072 10.865L44.4114 10.868L44.4162 10.871L44.4204 10.874L44.4246 10.8769L44.4288 10.8799L44.4335 10.8829L44.4377 10.8859L44.4419 10.8889L44.4461 10.8918L44.4509 10.8948L44.4551 10.8977L44.4593 10.9008L44.4635 10.9038L44.4683 10.9067L44.4725 10.9097L44.4767 10.9126L44.4809 10.9156L44.4857 10.9186L44.4899 10.9216L44.4941 10.9246L44.4989 10.9275L44.503 10.9305L44.5072 10.9335L44.5114 10.9365L44.5162 10.9395L44.5204 10.9424L44.5246 10.9454L44.5288 10.9484L44.5336 10.9514L44.5378 10.9543L44.542 10.9573L44.5462 10.9603L44.551 10.9633L44.5552 10.9663L44.5594 10.9692L44.5636 10.9722L44.5683 10.9752L44.5725 10.9781L44.5767 10.9811L44.5809 10.9841L44.5857 10.9871L44.5899 10.9901L44.5941 10.993L44.5983 10.996L44.6031 10.999L44.6073 11.002L44.6115 11.0049L44.6163 11.0079L44.6205 11.0109L44.6247 11.0139L44.6289 11.0169L44.6337 11.0198L44.6378 11.0228L44.642 11.0258L44.6462 11.0288L44.651 11.0318L44.6552 11.0347L44.6594 11.0377L44.6636 11.0407L44.6684 11.0436L44.6726 11.0466L44.6768 11.0496L44.681 11.0526L44.6858 11.0555L44.69 11.0585L44.6942 11.0615L44.6984 11.0645L44.7031 11.0675L44.7073 11.0704L44.7115 11.0734L44.7157 11.0764L44.7205 11.0794L44.7247 11.0824L44.7289 11.0853L44.7337 11.0883L44.7379 11.0913L44.7421 11.0943L44.7463 11.0973L44.7511 11.1002L44.7553 11.1032L44.7595 11.1061L44.7637 11.1091L44.7685 11.1121L44.7726 11.1151L44.7768 11.1181L44.781 11.121L44.7858 11.124L44.79 11.127L44.7942 11.13L44.7984 11.133L44.8032 11.1359L44.8074 11.1389L44.8116 11.1419L44.8158 11.1449L44.8206 11.1479L44.8248 11.1508L44.829 11.1538L44.8338 11.1568L44.8379 11.1598L44.8421 11.1628L44.8463 11.1657L44.8511 11.1687L44.8553 11.1716L44.8595 11.1747L44.8637 11.1777L44.8685 11.1806L44.8727 11.1836L44.8769 11.1865L44.8811 11.1895L44.8859 11.1925L44.8901 11.1955L44.8943 11.1985L44.8985 11.2014L44.9033 11.2044L44.9074 11.2074L44.9116 11.2104L44.9158 11.2134L44.9206 11.2163L44.9248 11.2193L44.929 11.2223L44.9332 11.2253L44.938 11.2283L44.9422 11.2312L44.9464 11.2342L44.9512 11.2372L44.9554 11.2402L44.9596 11.2431L44.9638 11.2461L44.9686 11.2491L44.9728 11.252L44.9769 11.255L44.9811 11.258L44.9859 11.261L44.9901 11.264L44.9943 11.2669L44.9985 11.2699L45.0033 11.2729L45.0075 11.2759L45.0117 11.2789L45.0159 11.2818L45.0207 11.2848L45.0249 11.2878L45.0291 11.2908L45.0333 11.2937L45.0381 11.2967L45.0422 11.2997L45.0464 11.3027L45.0506 11.3057L45.0554 11.3086L45.0596 11.3116L45.0638 11.3146L45.0686 11.3175L45.0728 11.3205L45.077 11.3235L45.0812 11.3265L45.086 11.3295L45.0902 11.3324L45.0944 11.3354L45.0986 11.3384L45.1034 11.3414L45.1076 11.3443L45.1117 11.3473L45.1159 11.3503L45.1207 11.3533L45.1249 11.3563L45.1291 11.3592L45.1333 11.3622L45.1381 11.3652L45.1423 11.3682L45.1465 11.3712L45.1507 11.3741L45.1555 11.3771L45.1597 11.3801L45.1639 11.383L45.1687 11.386L45.1729 11.389L45.177 11.392L45.1812 11.3949L45.186 11.3979L45.1902 11.4009L45.1944 11.4039L45.1986 11.4069L45.2034 11.4098L45.2076 11.4128L45.2118 11.4158L45.216 11.4188L45.2208 11.4218L45.225 11.4247L45.2292 11.4277L45.2334 11.4307L45.2382 11.4337L45.2424 11.4367L45.2465 11.4396L45.2507 11.4426L45.2555 11.4455L45.2597 11.4485L45.2639 11.4516L45.2681 11.4545L45.2729 11.4575L45.2771 11.4604L45.2813 11.4634L45.2861 11.4664L45.2903 11.4694L45.2945 11.4724L45.2987 11.4753L45.3035 11.4783L45.3077 11.4813L45.3118 11.4843L45.316 11.4873L45.3208 11.4902L45.325 11.4932L45.3292 11.4962L45.3334 11.4992L45.3382 11.5022L45.3424 11.5051L45.3466 11.5081L45.3508 11.5111L45.3556 11.5141L45.3598 11.5171L45.364 11.52L45.3682 11.523L45.373 11.5259L45.3772 11.5289L45.3813 11.5319L45.3855 11.5349L45.3903 11.5379L45.3945 11.5408L45.3987 11.5438L45.4035 11.5468L45.4077 11.5498L45.4119 11.5528L45.4161 11.5557L45.4209 11.5587L45.4251 11.5617L45.4293 11.5647L45.4335 11.5677L45.4383 11.5706L45.4425 11.5736L45.4467 11.5766L45.4508 11.5796L45.4556 11.5825L45.4598 11.5855L45.464 11.5885L45.4682 11.5914L45.473 11.5944L45.4772 11.5974L45.4814 11.6004L45.4856 11.6034L45.4904 11.6063L45.4946 11.6093L45.4988 11.6123L45.5036 11.6153L45.5078 11.6183L45.512 11.6212L45.5161 11.6242L45.5209 11.6272L45.5251 11.6302L45.5293 11.6331L45.5335 11.6361L45.5383 11.6391L45.5425 11.6421L45.5467 11.6451L45.5509 11.648L45.5557 11.651L45.5599 11.654L45.5641 11.6569L45.5683 11.6599L45.5731 11.6629L45.5773 11.6659L45.5815 11.6688L45.5856 11.6718L45.5904 11.6748L45.5946 11.6778L45.5988 11.6808L45.603 11.6837L45.6078 11.6867L45.612 11.6897L45.6162 11.6927L45.621 11.6957L45.6252 11.6986L45.6294 11.7016L45.6336 11.7046L45.6384 11.7076L45.6426 11.7106L45.6468 11.7135L45.6509 11.7165L45.6557 11.7194L45.6599 11.7224L45.6641 11.7255L45.6683 11.7284L45.6731 11.7314L45.6773 11.7343L45.6815 11.7373L45.6857 11.7403L45.6905 11.7433L45.6947 11.7463L45.6989 11.7492L45.7031 11.7522L45.7079 11.7552L45.7121 11.7582L45.7163 11.7612L45.7204 11.7641L45.7252 11.7671L45.7294 11.7701L45.7336 11.7731L45.7384 11.7761L45.7426 11.779L45.7468 11.782L45.751 11.7849L45.7534 11.7866C46.18 12.1476 46.6083 12.5175 47.0319 12.8843C49.6962 15.1919 51.8033 17.9312 53.2969 21.1176C56.2721 27.4703 56.6531 33.9627 54.4106 40.5671C53.4748 43.3403 52.0501 45.8564 50.1815 48.116C45.8678 53.3245 40.3333 56.32 33.6091 57.1858C33.1521 57.2458 32.6911 57.28 32.2197 57.3155C31.9822 57.3335 31.742 57.3515 31.4982 57.3731L31.3615 57.3851L31.3617 57.5226C31.3632 58.6976 31.3684 59.8671 31.3735 61.0367C31.3882 65.5174 31.4015 69.9976 31.4148 74.4777L31.4149 74.5257C31.4282 78.9896 31.4415 83.4536 31.4561 87.9187C31.4563 88.163 31.4322 88.3762 31.3571 88.5479C31.2849 88.7124 31.163 88.8463 30.9466 88.9315C30.8538 88.967 30.745 88.9808 30.6175 88.9868C30.5764 88.9892 30.5311 88.9904 30.4839 88.9916C30.4142 88.9934 30.3404 88.9952 30.2702 89L30.2691 88.9994L30.2682 88.9988L30.2673 88.9982L30.2664 88.9976L30.2654 88.997L30.2645 88.9964L30.2636 88.9958L30.2626 88.9946L30.2617 88.994L30.2607 88.9934L30.2599 88.9928L30.2589 88.9922L30.258 88.9916L30.257 88.991L30.2561 88.9904L30.2552 88.9898L30.2542 88.9892L30.2533 88.9886L30.2524 88.988L30.2515 88.9874L30.2505 88.9868L30.2495 88.9862L30.2486 88.9856L30.2477 88.9844L30.2468 88.9838L30.2458 88.9832L30.2449 88.9826L30.244 88.982L30.2431 88.9814L30.2421 88.9808L30.2412 88.9802L30.2403 88.9796L30.2393 88.979L30.2384 88.9784L30.2374 88.9778L30.2365 88.9772L30.2356 88.9766L30.2347 88.976L30.2337 88.9754L30.2328 88.9742L30.2319 88.9736L30.2309 88.973L30.23 88.9724L30.2291 88.9718L30.2282 88.9712L30.2272 88.9706L30.2263 88.97L30.2253 88.9694L30.2244 88.9688L30.2235 88.9682L30.2225 88.9676L30.2216 88.967L30.2207 88.9664L30.2198 88.9658L30.2188 88.9652L30.2179 88.964L30.217 88.9634L30.216 88.9628L30.2151 88.9622L30.2141 88.9616L30.2132 88.961L30.2123 88.9604L30.2114 88.9598L30.2104 88.9592L30.2095 88.9586L30.2086 88.958L30.2076 88.9574L30.2067 88.9568L30.2057 88.9562L30.2048 88.9556L30.2039 88.955L30.203 88.9538L30.202 88.9532L30.2011 88.9526L30.2002 88.952L30.1992 88.9514L30.1983 88.9508L30.1974 88.9502L30.1965 88.9496L30.1955 88.949L30.1946 88.9484L30.1936 88.9478L30.1928 88.9472L30.1918 88.9466L30.1908 88.9459L30.1899 88.9454L30.189 88.9447L30.1881 88.9435L30.1871 88.943L30.1862 88.9423L30.1853 88.9418L30.1844 88.9411L30.1834 88.9406L30.1824 88.9399L30.1815 88.9394L30.1806 88.9387L30.1797 88.9381L30.1787 88.9375L30.1778 88.9369L30.1769 88.9363L30.1759 88.9357L30.175 88.9351L30.1741 88.9345L30.1732 88.9333L30.1722 88.9327L30.1713 88.9321L30.1703 88.9315L30.1694 88.9309L30.1685 88.9303L30.1675 88.9297L30.1666 88.9291L30.1657 88.9285L30.1648 88.9279L30.1638 88.9273L30.1629 88.9267L30.162 88.9261L30.1611 88.9255L30.1601 88.9249L30.1591 88.9243L30.1582 88.9231L30.1573 88.9225L30.1564 88.9219L30.1554 88.9213L30.1545 88.9207L30.1536 88.9201L30.1527 88.9195L30.1517 88.9189L30.1508 88.9183L30.1499 88.9177L30.1489 88.9171L30.148 88.9165L30.147 88.9159L30.1461 88.9153L30.1452 88.9147L30.1443 88.9141L30.1433 88.9129L30.1424 88.9123L30.1415 88.9117L30.1405 88.9111L30.1396 88.9105L30.1386 88.9099L30.1377 88.9093L30.1368 88.9087L30.1359 88.9081L30.1349 88.9075L30.134 88.9069L30.1331 88.9063L30.1321 88.9057L30.1312 88.9051L30.1303 88.9045L30.1294 88.9039L30.1284 88.9027L30.1275 88.9021L30.1265 88.9015L30.1256 88.9009L30.1247 88.9003L30.1237 88.8997L30.1228 88.8991L30.1219 88.8985L30.121 88.8979L30.12 88.8973L30.1191 88.8967L30.1182 88.8961L30.1172 88.8955L30.1163 88.8949L30.1153 88.8943L30.1144 88.8937L30.1135 88.8925L30.1126 88.8919L30.1116 88.8913L30.1107 88.8907L30.1098 88.8901L30.1088 88.8895L30.1079 88.8889L30.107 88.8883L30.1061 88.8877L30.1051 88.8871L30.1042 88.8865L30.1032 88.8859L30.1023 88.8853L30.1014 88.8847L30.1004 88.8841L30.0995 88.8835L30.0986 88.8823L30.0977 88.8817L30.0967 88.8811L30.0958 88.8805L30.0949 88.8799L30.094 88.8793L30.093 88.8787L30.092 88.8781L30.0911 88.8775L30.0902 88.8769L30.0893 88.8763L30.0883 88.8757L30.0874 88.8751L30.0865 88.8745L30.0855 88.8739L30.0846 88.8733L30.0837 88.8721L30.0828 88.8715L30.0818 88.8709L30.0809 88.8703L30.0799 88.8697L30.079 88.8691L30.0781 88.8685L30.0771 88.8679L30.0762 88.8673L30.0753 88.8667L30.0744 88.8661L30.0734 88.8655L30.0725 88.8649L30.0715 88.8643L30.0706 88.8637L30.0697 88.8631L30.0688 88.8619L30.0678 88.8613L30.0669 88.8607L30.066 88.8601L30.065 88.8595L30.0641 88.8589L30.0632 88.8583L30.0623 88.8577L30.0613 88.8571L30.0604 88.8565L30.0594 88.8559L30.0585 88.8553L30.0576 88.8547L30.0566 88.8541L30.0557 88.8535L30.0548 88.8529L30.0539 88.8517L30.0529 88.8511L30.052 88.8505L30.0511 88.8499L30.0501 88.8493L30.0492 88.8487L30.0482 88.8481L30.0473 88.8475L30.0464 88.8469L30.0455 88.8463L30.0445 88.8457L30.0436 88.8451L30.0427 88.8445L30.0417 88.8439L30.0408 88.8433L30.0399 88.8421L30.039 88.8415L30.038 88.8409L30.0371 88.8403L30.0361 88.8397L30.0352 88.8391L30.0343 88.8385L30.0333 88.8379L30.0324 88.8373L30.0315 88.8367L30.0306 88.8361L30.0296 88.8355L30.0287 88.8349L30.0278 88.8343L30.0268 88.8337L30.0259 88.8331L30.0249 88.8319L30.024 88.8313L30.0231 88.8307L30.0222 88.8301L30.0212 88.8295L30.0203 88.8289L30.0194 88.8283L30.0184 88.8277L30.0175 88.8271L30.0165 88.8265L30.0157 88.8259L30.0147 88.8253L30.0138 88.8247L30.0128 88.8241L30.0119 88.8235L30.011 88.8229L30.01 88.8223L30.0091 88.8211L30.0082 88.8205L30.0073 88.8199L30.0063 88.8193L30.0054 88.8187L30.0044 88.8181L30.0035 88.8175L30.0026 88.8169L30.0016 88.8163L30.0007 88.8157L29.9998 88.8151L29.9989 88.8145L29.9979 88.8139L29.997 88.8133L29.9961 88.8127L29.9952 88.8115L29.9942 88.8109L29.9932 88.8103L29.9923 88.8097L29.9914 88.8091L29.9905 88.8085L29.9895 88.8079L29.9886 88.8073L29.9877 88.8067L29.9868 88.8061L29.9858 88.8055L29.9849 88.8049L29.984 88.8043L29.983 88.8037L29.9821 88.8031L29.9811 88.8025L29.9802 88.8013L29.9793 88.8007L29.9784 88.8001L29.9774 88.7995L29.9765 88.7989L29.9756 88.7983L29.9746 88.7977L29.9737 88.7971L29.9728 88.7965L29.9719 88.7959L29.9709 88.7953L29.97 88.7947L29.969 88.7941L29.9681 88.7935L29.9672 88.7929L29.9662 88.7923L29.9653 88.7911L29.9644 88.7905L29.9635 88.7899L29.9625 88.7893L29.9616 88.7887L29.9606 88.788L29.9597 88.7874L29.9588 88.7868L29.9578 88.7862L29.9569 88.7856L29.956 88.785L29.9551 88.7844L29.9541 88.7838L29.9532 88.7832L29.9523 88.7826L29.9513 88.782L29.9504 88.7808L29.9494 88.7802L29.9486 88.7796L29.9476 88.779L29.9467 88.7784L29.9457 88.7778L29.9448 88.7772L29.9439 88.7766L29.9429 88.776L29.942 88.7754L29.9411 88.7748L29.9402 88.7742L29.9392 88.7736L29.9383 88.773L29.9373 88.7724L29.9364 88.7718L29.9355 88.7706L29.9345 88.77L29.9336 88.7694L29.9327 88.7688L29.9318 88.7682L29.9308 88.7676L29.9299 88.767L29.929 88.7664L29.928 88.7658L29.9271 88.7652L29.9261 88.7646L29.9252 88.764L29.9243 88.7634L29.9234 88.7628L29.9224 88.7622L29.9215 88.7616L29.9206 88.7604L29.9196 88.7598L29.9187 88.7592L29.9178 88.7586L29.9169 88.758L29.9159 88.7574L29.915 88.7568L29.914 88.7562L29.9131 88.7556L29.9122 88.755L29.9112 88.7544L29.9103 88.7538L29.9094 88.7532L29.9085 88.7526L29.9075 88.752L29.9066 88.7514L29.9057 88.7502L29.9048 88.7496L29.9038 88.749L29.9028 88.7484L29.9019 88.7478L29.901 88.7472L29.9001 88.7466L29.8991 88.746L29.8982 88.7454L29.8973 88.7448L29.8964 88.7442L29.8954 88.7436L29.8944 88.743L29.8935 88.7424L29.8926 88.7418L29.8917 88.7412L29.8907 88.74L29.8898 88.7394L29.8889 88.7388L29.888 88.7382L29.887 88.7376L29.8861 88.737L29.8852 88.7364L29.8842 88.7358L29.8833 88.7352L29.8823 88.7346L29.8814 88.734L29.8805 88.7334L29.8796 88.7328L29.8786 88.7322L29.8777 88.7316L29.8768 88.731L29.8758 88.7298L29.8749 88.7292L29.874 88.7286L29.8731 88.728L29.8721 88.7274L29.8712 88.7268L29.8702 88.7262L29.8693 88.7256L29.8684 88.725L29.8674 88.7244L29.8665 88.7238L29.8661 88.7232C29.7017 88.4158 29.69 88.0778 29.6872 87.6911C29.6641 77.7372 29.6374 67.7893 29.6054 57.8372V57.836C29.6042 57.7333 29.6014 57.6217 29.5967 57.5016L29.5917 57.3707L29.4619 57.3581C29.2195 57.3341 28.9809 57.3131 28.7444 57.2926C28.3558 57.259 27.9732 57.2254 27.5901 57.1792C24.4877 56.7985 21.5383 55.8997 18.7783 54.4175C12.421 51.0029 8.14391 45.8568 6.07439 38.9581C4.34528 33.206 4.6035 27.5125 6.94526 22.0238C10.1695 14.486 15.7821 9.55827 23.7101 7.3983C29.4095 5.84244 35.0317 6.32894 40.4854 8.71802C41.1273 9.00183 41.7415 9.33403 42.3608 9.66893C42.659 9.83007 42.9579 9.99188 43.2617 10.1492L43.2623 10.1493C43.3288 10.1836 43.4037 10.215 43.4714 10.2434C43.4971 10.2542 43.5217 10.2646 43.5445 10.2745ZM20.0733 53.1243C14.1405 50.1039 10.0451 45.4513 7.9628 39.1309C6.09446 33.4624 6.32943 27.8468 8.69798 22.3967C13.5044 11.3479 25.696 5.80576 37.2596 9.36987C37.8321 9.54717 38.3953 9.76757 38.9529 9.98575C39.2612 10.1064 39.5679 10.2265 39.8734 10.3381C40.0182 10.3911 40.1279 10.4701 40.2054 10.5824C40.2805 10.6914 40.3167 10.8195 40.3378 10.9547L40.338 10.9558C40.6706 13.183 40.4247 15.3544 39.8954 17.5005C39.2801 19.9983 38.486 22.4411 37.3364 24.7526C37.0672 25.2984 36.7673 25.8302 36.4703 26.357C36.3351 26.5968 36.2004 26.8356 36.0696 27.0741L36.0289 27.1483L35.9446 27.1517C35.8919 27.1538 35.8397 27.1527 35.7897 27.1516C35.7739 27.1512 35.7582 27.1509 35.7428 27.1506L35.6129 27.1487L35.5966 27.0194C35.5798 26.8873 35.5672 26.7596 35.5549 26.6346C35.5333 26.4157 35.5125 26.2049 35.4715 25.9928C35.1996 24.6334 34.9225 23.2703 34.633 21.915C34.4771 21.1713 33.6786 20.9123 33.1628 21.3902C32.9033 21.6294 32.8571 21.9296 32.9384 22.3067L32.9387 22.3081L34.2464 28.6472L35.74 35.9126L37.233 43.1754C37.25 43.2462 37.2603 43.32 37.2708 43.3955C37.2751 43.4266 37.2795 43.4579 37.2844 43.4894L37.3123 43.6694L37.1309 43.6625C36.8242 43.6508 36.5399 43.6395 36.2561 43.6282L36.2448 43.6278C34.9967 43.5747 33.748 43.5218 32.4989 43.4689C29.1378 43.3265 25.7737 43.184 22.4115 43.0386C22.0332 43.0244 21.7483 43.0793 21.5357 43.3542L21.5341 43.3563C21.4207 43.4977 21.3582 43.6408 21.3393 43.785C21.3203 43.9292 21.3439 44.0843 21.4168 44.2506C21.5527 44.5637 21.7899 44.7383 22.131 44.7663L22.1321 44.7664C22.3636 44.787 22.5971 44.7956 22.8341 44.8043C22.9378 44.8082 23.0422 44.812 23.1473 44.817C25.5179 44.9185 27.8974 45.0184 30.2715 45.1146L30.2761 45.1149C30.4017 45.1239 30.5262 45.1328 30.7427 45.1431L30.8978 45.1505L30.8848 45.3057C30.8538 45.6756 30.8263 46.0459 30.7989 46.4159C30.7369 47.2518 30.675 48.0865 30.5723 48.9129C30.3012 51.0855 29.6678 53.1554 28.8098 55.1523L28.8071 55.1583C28.7561 55.2637 28.6931 55.3654 28.5917 55.432C28.4862 55.5005 28.3632 55.5161 28.2241 55.5017H28.2233C25.3729 55.1891 22.6424 54.4319 20.0733 53.1243ZM20.0733 53.1243L20.141 52.9904M30.6033 55.3864L30.5183 55.5923L30.7408 55.5935C40.98 55.647 50.9567 48.6811 53.503 37.4135C56.181 25.5616 49.5512 15.7163 42.423 11.7155L42.202 11.5914L42.2003 11.8455C42.2003 11.8599 42.2001 11.8744 42.2 11.8891C42.1993 11.9629 42.1985 12.0395 42.2044 12.1143C42.2761 13.313 42.242 14.5047 42.0366 15.6757C41.4204 19.1786 40.3934 22.5436 38.81 25.7255C38.143 27.0589 37.3757 28.3343 36.4365 29.4892C36.3669 29.5746 36.3305 29.6875 36.3145 29.7906C36.2981 29.8953 36.2999 30.008 36.3214 30.1056C37.2772 34.7904 38.2437 39.4825 39.2083 44.1655C39.306 44.6484 39.2435 44.9661 39.0781 45.1589C38.9122 45.352 38.6048 45.4639 38.106 45.4426C36.428 45.3746 34.7444 45.303 33.0608 45.2314C32.965 45.2255 32.8697 45.2257 32.7725 45.2259C32.7509 45.2259 32.729 45.226 32.7072 45.226L32.5568 45.2259L32.5575 45.3768C32.5727 48.8653 31.9203 52.1879 30.6033 55.3864Z" stroke="#EDF1F1" stroke-width="0.5"/>
</g>
<path id="Vector_3" d="M21.9461 21.0632C22.6987 19.9557 22.4146 18.4523 21.3007 17.6895C20.1823 16.9182 18.6675 17.1948 17.9149 18.3023C17.1671 19.4027 17.456 20.9146 18.5637 21.6786C19.6823 22.4499 21.1886 22.1779 21.9461 21.0632Z" fill="#3D3935"/>
<g id="Vector_4">
<path d="M12.7584 32.9572C12.8245 31.8754 13.0451 30.8217 13.3981 29.8052C13.5589 29.3452 13.419 28.9284 13.0817 28.7037C12.609 28.3937 11.9788 28.6004 11.7842 29.1405C11.1488 30.8887 10.8985 32.7026 11.022 34.5668C11.151 36.4112 11.6436 38.1607 12.4934 39.804L12.7584 32.9572ZM12.7584 32.9572C12.6302 35.0671 13.0476 37.0588 14.0044 38.9491C14.1025 39.146 14.1525 39.3284 14.1498 39.4972C14.1471 39.6633 14.0933 39.8261 13.9668 39.9874M12.7584 32.9572L13.9668 39.9874L12.7584 32.9572ZM13.9668 39.9874C13.5713 40.492 12.8073 40.4099 12.4934 39.804L13.9668 39.9874Z" fill="#3D3935"/>
<path d="M12.7584 32.9572C12.8245 31.8754 13.0451 30.8217 13.3981 29.8052C13.5589 29.3452 13.419 28.9284 13.0817 28.7037C12.609 28.3937 11.9788 28.6004 11.7842 29.1405C11.1488 30.8887 10.8985 32.7026 11.022 34.5668C11.151 36.4112 11.6436 38.1607 12.4934 39.804M12.7584 32.9572L12.4934 39.804M12.7584 32.9572C12.6302 35.0671 13.0476 37.0588 14.0044 38.9491C14.1025 39.146 14.1525 39.3284 14.1498 39.4972C14.1471 39.6633 14.0933 39.8261 13.9668 39.9874M12.7584 32.9572L13.9668 39.9874M12.4934 39.804C12.8073 40.4099 13.5713 40.492 13.9668 39.9874M12.4934 39.804L13.9668 39.9874" stroke="#EDF1F1" stroke-width="0.5"/>
</g>
</g>
</svg>
