<svg width="56" height="93" viewBox="0 0 56 93" fill="none" xmlns="http://www.w3.org/2000/svg">
<g id="Benefit_ill_2.svg" clip-path="url(#clip0_201_8486)">
<path id="Vector" opacity="0.2" d="M25.4545 46.5C34.9438 46.5 42.6363 38.7999 42.6363 29.3014C42.6363 19.8029 34.9438 12.1028 25.4545 12.1028C15.9653 12.1028 8.27271 19.8029 8.27271 29.3014C8.27271 38.7999 15.9653 46.5 25.4545 46.5Z" fill="#6B7F2A"/>
<path id="Vector_2" d="M53.8042 17.85C52.9869 18.067 52.1863 18.3175 51.3522 18.5012C50.6183 18.6682 49.8509 18.8017 49.1003 18.9019C48.8501 18.9353 48.5332 18.9854 48.383 18.6515C47.916 17.6496 47.0653 17.5495 46.2146 17.8667C45.4139 18.1672 44.5966 18.4511 43.7959 18.7349C43.1287 18.9687 43.0619 18.9353 42.6616 18.3509C41.9943 17.3825 41.177 17.0819 40.0594 17.4493C39.6257 17.5829 39.1753 17.7498 38.8251 18.017C37.7241 18.8184 36.6232 19.6199 35.589 20.5048C33.9042 21.9742 32.2862 23.527 30.6349 25.0297C29.634 25.9313 28.6165 26.7995 27.599 27.6845C27.5156 27.768 27.4322 27.8515 27.3321 27.935C27.3321 27.2671 27.3487 26.6159 27.3321 25.9814C27.3154 24.9462 27.182 23.8943 27.2821 22.8591C27.5323 20.0874 27.9326 17.3324 28.1828 14.5774C28.2829 13.5088 28.2662 12.4068 28.1327 11.3382C27.966 9.93565 27.2487 9.08413 25.6474 9.23439C25.2804 9.26777 25.0802 9.1175 24.9635 8.78353C24.7132 7.99883 24.4464 7.19737 24.1628 6.41261C23.8291 5.46087 23.3955 5.17702 22.4113 5.2772C22.111 5.31059 21.9276 5.21041 21.7941 4.97665C21.5772 4.60932 21.3438 4.24199 21.1602 3.85795C20.7099 2.88953 20.3095 1.90441 19.8759 0.919292C19.6256 0.351594 19.1752 0.0343516 18.5414 0.00095766C17.991 -0.0157393 17.5239 0.184624 17.2736 0.702233C17.0568 1.11966 17.1069 1.57047 17.2736 2.00459C17.7574 3.35705 18.2578 4.7095 18.7582 6.07865C18.5914 6.12874 18.458 6.16214 18.3412 6.21223C17.5906 6.46267 17.3737 6.84671 17.5906 7.61479C17.7074 8.01552 17.8408 8.41625 17.991 8.80029C18.3412 9.61843 18.7249 10.4366 19.0919 11.2547C18.041 11.3382 17.3071 12.5404 18.041 13.4921C19.3087 15.1785 20.5598 16.8816 21.8275 18.568C22.8617 19.9371 23.9626 21.2729 24.9301 22.6921C25.6974 23.8108 26.1144 25.1132 26.1311 26.499C26.1477 27.384 26.0477 28.2522 25.7474 29.037C25.3971 28.5862 25.0969 28.1019 24.6966 27.7179C23.5456 26.5825 22.3279 25.5306 21.1936 24.3952C19.8091 23.0093 18.4913 21.5567 17.0735 20.2043C16.3896 19.5531 15.5723 19.0021 14.7382 18.568C13.7207 18.0337 12.8033 18.3342 12.136 19.2192C11.6857 19.837 11.6857 19.837 10.935 19.5698C10.1844 19.3027 9.43377 19.0021 8.66645 18.7684C7.86577 18.5179 7.29865 18.7517 6.91498 19.4696C6.76486 19.7368 6.59807 19.837 6.31449 19.8035C5.73066 19.7201 5.13017 19.6366 4.54634 19.503C3.57886 19.286 2.61139 18.9854 1.64391 18.7684C0.960006 18.6181 0.259418 19.119 0.0592504 19.8035C-0.140918 20.4547 0.176015 21.0892 0.859918 21.3897C1.16017 21.5233 1.46042 21.6068 1.76068 21.707C2.91164 22.091 4.0626 22.475 5.24693 22.8758C5.19689 23.0093 5.14685 23.1095 5.11348 23.2097C4.79655 24.0446 4.96336 24.462 5.78071 24.796C6.19772 24.9629 6.64809 25.0965 7.08177 25.2134C7.88245 25.4304 8.68312 25.6141 9.50046 25.8144C8.95001 26.8831 9.40043 27.8682 10.5013 28.0352C10.7849 28.0852 11.0851 28.1186 11.3687 28.1186C13.9709 28.1353 16.5564 28.1353 19.1586 28.1521C20.2762 28.1521 21.4105 28.1353 22.528 28.2355C23.8625 28.3524 24.4797 28.8533 24.5965 29.9386C24.6798 30.7401 24.7299 31.6083 24.5464 32.3764C24.046 34.547 23.7625 36.7175 23.7458 38.9383C23.7458 39.6395 23.7458 40.3241 23.7458 41.0588C23.5789 41.0755 23.4789 41.1089 23.3621 41.1089C22.2445 41.2258 21.1269 41.3092 20.0093 41.4929C19.2587 41.6098 18.5081 41.8101 17.9075 42.3444C17.4572 42.7452 17.3904 43.1125 17.6406 43.6468C17.7241 43.8138 17.8909 43.964 17.9409 44.1311C18.0743 44.515 18.1911 44.8991 18.2412 45.2831C18.2578 45.4334 18.041 45.6003 17.9075 45.7673C17.6573 46.1013 17.6406 46.502 17.9743 46.7691C18.2412 46.9862 18.2578 47.2367 18.2578 47.5372C18.2578 60.4606 18.2578 73.384 18.2578 86.3078C18.2578 86.7582 18.2745 87.2257 18.3579 87.6767C18.7249 89.7469 19.6923 91.4337 21.6273 92.435C22.6615 92.9694 23.7791 93.0363 24.9134 92.9866C26.5314 92.9026 27.8659 92.2681 28.9001 91.0158C30.0343 89.6469 30.4847 88.0608 30.4847 86.3078C30.4847 73.384 30.4847 60.4606 30.4847 47.5372C30.4847 47.2367 30.5348 47.0196 30.785 46.8192C31.1686 46.502 31.2187 46.0011 30.8183 45.7005C30.418 45.4 30.4513 45.066 30.5681 44.7154C30.6849 44.3648 30.8851 44.0475 31.0852 43.7303C31.4022 43.2461 31.4022 42.7953 30.9851 42.4279C30.7016 42.1775 30.368 41.927 30.001 41.8268C29.0669 41.5764 28.1161 41.376 27.1653 41.2258C26.4647 41.1089 25.7641 41.1089 25.0802 41.0588C25.0468 40.992 25.0302 40.9753 25.0302 40.9586C25.0135 38.3873 24.9801 35.816 25.6807 33.2947C26.031 32.0425 26.5314 30.8403 27.4488 29.8885C28.6665 28.6362 30.2345 28.0017 31.9693 27.9517C33.8876 27.9016 35.8058 28.0017 37.7241 27.9684C39.9927 27.935 42.278 27.8515 44.5465 27.768C45.1804 27.7513 45.5807 27.3673 45.7642 26.7328C45.8977 26.2486 45.8142 25.7978 45.514 25.3637C45.8142 25.2968 46.0811 25.2468 46.348 25.1633C47.499 24.8293 48.6499 24.5455 49.7675 24.1615C50.4848 23.911 50.6349 23.4602 50.4014 22.7255C50.3514 22.5419 50.268 22.3749 50.2013 22.1578C50.5348 22.0409 50.8518 21.9241 51.1687 21.8239C52.4031 21.4064 53.6374 20.989 54.8718 20.5716C55.4557 20.3713 55.8727 20.0039 55.9227 19.3694C55.9394 18.3342 54.9219 17.5495 53.8042 17.85ZM10.4179 26.7829C10.5013 26.5658 10.5514 26.4323 10.6014 26.2987C10.9183 25.4805 10.6681 24.8961 9.81744 24.6456C8.95001 24.3952 8.06597 24.1948 7.19855 23.9778C6.84829 23.8943 6.51465 23.7607 6.16437 23.6439C6.61475 23.0762 6.53132 22.2914 5.98088 21.9241C5.74734 21.7571 5.46377 21.6569 5.19688 21.5735C4.01256 21.1727 2.82824 20.7887 1.64391 20.388C1.49379 20.3378 1.36034 20.2711 1.2269 20.221C1.2269 20.1876 1.2269 20.1375 1.2269 20.1041C1.41038 20.1041 1.61055 20.0707 1.79404 20.1041C2.82824 20.3378 3.86243 20.6551 4.91331 20.8388C5.54718 20.9556 6.2144 20.9223 6.86496 20.8889C7.33199 20.8721 7.71565 20.6217 7.91585 20.1709C8.03256 19.887 8.23276 19.9539 8.4329 20.0206C9.28365 20.3211 10.1177 20.6384 10.985 20.9223C12.0026 21.2562 12.2861 21.156 12.92 20.2711C13.0201 20.1375 13.1035 19.9872 13.2203 19.8703C13.4371 19.6032 13.7207 19.4696 14.0209 19.6366C14.6882 20.0206 15.4054 20.3713 15.9559 20.8889C17.4905 22.3415 18.9417 23.8776 20.4263 25.3803C20.4096 25.4137 20.3762 25.4639 20.3596 25.4972C20.2428 25.4471 20.1428 25.4137 20.026 25.3637C17.991 24.5789 15.9726 23.7941 13.9375 23.0093C13.9042 22.9927 13.8541 22.9927 13.8208 22.976C13.5372 22.8758 13.2203 22.7756 13.0868 23.1763C12.97 23.5437 13.287 23.6439 13.5539 23.7274C15.9058 24.462 18.1911 25.347 20.393 26.4156C20.6431 26.5324 20.8933 26.666 21.1269 26.7829C17.5739 26.9331 14.0376 27.1669 10.4179 26.7829ZM23.6624 42.3946C23.6624 42.9289 23.6624 43.3964 23.6624 43.914C21.9943 43.8806 20.3762 43.7136 18.8083 43.1626C20.3596 42.5949 21.9776 42.4279 23.6624 42.3946ZM19.4755 44.7822C20.86 44.9324 22.2445 45.0995 23.6457 45.2664C23.6457 45.9009 23.6457 46.5521 23.6457 47.3034C22.9951 47.2701 22.3446 47.2534 21.7107 47.1865C21.0769 47.1198 20.4597 46.9695 19.8258 46.8693C19.5589 46.836 19.4589 46.7191 19.4589 46.4352C19.4922 45.8675 19.4755 45.2998 19.4755 44.7822ZM24.9801 42.4446C25.8808 42.2777 28.9167 42.6951 29.9676 43.1626C28.2995 43.747 26.6648 43.8638 24.9801 43.9307C24.9801 43.413 24.9801 42.9289 24.9801 42.4446ZM29.1503 46.5521C29.1503 46.6522 29.0335 46.8193 28.9501 46.8359C27.649 47.1532 26.3313 47.2701 24.9801 47.2867C24.9801 46.5521 24.9801 45.9009 24.9801 45.2664C26.398 45.1162 27.7992 44.9492 29.167 44.7989C29.167 45.3666 29.1836 45.951 29.1503 46.5521ZM29.167 47.6875C29.167 47.7877 29.167 47.9212 29.167 48.0715C29.167 60.7946 29.167 73.5012 29.167 86.2237C29.167 87.5264 28.9334 88.7621 28.1828 89.8641C27.4488 90.9324 26.4647 91.5668 25.1636 91.7171C24.0794 91.8509 23.0285 91.8178 22.0443 91.2833C20.5431 90.482 19.8425 89.1462 19.5589 87.5429C19.4922 87.1588 19.4755 86.7747 19.4755 86.3741C19.4755 73.5847 19.4755 60.8113 19.4755 48.0214C19.4755 47.8878 19.4755 47.7542 19.4755 47.6708C20.8933 47.8377 22.2611 47.988 23.679 48.155C23.679 48.3387 23.679 48.5223 23.679 48.706C23.679 59.726 23.679 70.7463 23.679 81.7661C23.679 81.9496 23.6624 82.133 23.6957 82.3006C23.7625 82.6343 23.9793 82.8178 24.3129 82.8178C24.6465 82.8178 24.8634 82.6343 24.9301 82.3006C24.9635 82.133 24.9467 81.9661 24.9467 81.7992C24.9467 70.7628 24.9467 59.7427 24.9467 48.706C24.9467 48.5223 24.9467 48.322 24.9467 48.1383C26.3646 47.988 27.7491 47.8377 29.167 47.6875ZM26.7816 16.1803C26.6482 17.7498 26.398 19.3194 26.1978 20.8889C26.1811 20.8889 26.1477 20.8889 26.1311 20.8889C25.7975 19.7201 25.4972 18.5513 25.1469 17.3825C24.8634 16.4307 24.5464 15.479 24.2295 14.5273C24.2128 14.4939 24.2128 14.4772 24.2128 14.4439C24.1294 14.1767 23.9959 13.9262 23.6624 14.0431C23.3287 14.16 23.3788 14.4271 23.4622 14.6943C23.7958 15.7295 24.1294 16.748 24.4464 17.7832C24.7132 18.6682 24.9467 19.5698 25.1803 20.4714C25.1969 20.5549 25.2136 20.6551 25.247 20.8721C23.1119 18.0838 20.7432 15.6126 18.9417 12.6405C19.1252 12.5738 19.2587 12.507 19.4088 12.4569C20.2261 12.2231 20.5431 11.6721 20.2428 10.8707C19.9426 10.0692 19.5422 9.30115 19.192 8.51638C19.0251 8.1324 18.875 7.71492 18.7249 7.29751C19.5923 7.36433 20.2261 6.57956 19.9092 5.66123C19.4421 4.35887 18.9751 3.0732 18.5081 1.78753C18.458 1.63726 18.4246 1.48699 18.3746 1.32002C18.4246 1.28662 18.458 1.26993 18.5081 1.23653C18.6081 1.3868 18.7415 1.52038 18.825 1.67066C19.3254 2.72256 19.7924 3.79116 20.3262 4.82638C20.5264 5.2271 20.8267 5.59444 21.1269 5.94508C21.5106 6.39592 21.9776 6.66307 22.5948 6.52949C22.9117 6.46267 22.9618 6.69645 23.0285 6.91347C23.3287 7.78174 23.5956 8.64996 23.9126 9.51823C24.2462 10.4031 24.4964 10.5702 25.4472 10.5367C25.4805 10.5367 25.4972 10.5367 25.5306 10.5367C26.6482 10.4866 26.9985 10.7705 26.9985 11.956C26.9651 13.3418 26.9151 14.7778 26.7816 16.1803ZM54.1212 19.5531C52.7534 20.0206 51.3855 20.4714 50.0177 20.9223C49.4339 21.1226 48.9335 21.3897 48.8668 22.091C48.8335 22.4584 48.8501 22.8257 49.3505 23.1095C48.4331 23.36 47.6157 23.5938 46.7984 23.8108C46.2479 23.9611 45.6808 24.0613 45.147 24.2282C44.2629 24.4954 43.9793 25.0965 44.3297 25.9313C44.6132 26.5825 44.5465 26.5992 43.8292 26.6326C41.9777 26.7161 40.1094 26.7662 38.2413 26.7662C36.6065 26.7662 34.9551 26.6827 33.3204 26.6493C32.5531 26.6326 31.8025 26.6994 31.0019 26.7328C31.1353 26.6493 31.2687 26.5825 31.4022 26.5157C34.071 25.1633 36.84 24.0946 39.7091 23.2097C39.7758 23.1931 39.8425 23.1763 39.9093 23.1429C40.1762 23.0595 40.3931 22.9259 40.293 22.6253C40.1929 22.3081 39.926 22.3081 39.6757 22.3916C38.6416 22.7255 37.6074 23.0428 36.6065 23.4101C35.3888 23.8609 34.1878 24.3785 32.9868 24.8794C32.8701 24.9295 32.7366 24.9796 32.5865 24.9796C33.0035 24.5789 33.4205 24.1948 33.8542 23.8108C35.222 22.5752 36.5732 21.2895 37.991 20.1208C38.6916 19.5364 39.509 19.0856 40.3096 18.6848C40.9602 18.3676 41.2604 18.5346 41.6774 19.1356C41.8275 19.3527 41.9943 19.5531 42.1612 19.7701C42.4948 20.221 42.9452 20.3211 43.4622 20.1542C44.4631 19.8203 45.4472 19.4696 46.4481 19.119C47.0319 18.9186 47.0319 18.9186 47.3822 19.4195C47.6991 19.8703 48.1829 20.0039 48.6833 20.0373C50.1012 20.1542 51.469 19.7701 52.8201 19.4195C53.2371 19.3194 53.6374 19.1691 54.0544 19.0689C54.2213 19.0355 54.4214 19.1023 54.5882 19.119C54.5882 19.1858 54.5882 19.2525 54.5882 19.3194C54.4381 19.4028 54.288 19.4863 54.1212 19.5531Z" fill="#3D3935"/>
</g>
<defs>
<clipPath id="clip0_201_8486">
<rect width="56" height="93" fill="white"/>
</clipPath>
</defs>
</svg>
