<svg width="24" height="24" viewBox="0 0 24 24" fill="none" xmlns="http://www.w3.org/2000/svg">
<g id="insta.svg">
<path id="Vector" fill-rule="evenodd" clip-rule="evenodd" d="M19.9517 15.2983C19.9131 16.1499 19.7776 16.7313 19.5799 17.2402C19.1643 18.3148 18.3148 19.1643 17.2402 19.5799C16.7315 19.7776 16.1499 19.9128 15.2985 19.9517C14.4454 19.9906 14.1728 20 12.0002 20C9.82738 20 9.55506 19.9906 8.70174 19.9517C7.85034 19.9128 7.26871 19.7776 6.75999 19.5799C6.22598 19.379 5.74256 19.0642 5.3429 18.6571C4.93601 18.2577 4.62117 17.774 4.42028 17.2402C4.22258 16.7315 4.08716 16.1499 4.04847 15.2985C4.00914 14.4452 4 14.1726 4 12C4 9.82738 4.00914 9.55485 4.04826 8.70174C4.08695 7.85013 4.22215 7.26871 4.41986 6.75978C4.62075 6.22598 4.9358 5.74235 5.3429 5.3429C5.74235 4.9358 6.22598 4.62096 6.75978 4.42007C7.26871 4.22236 7.85013 4.08716 8.70174 4.04826C9.55485 4.00935 9.82738 4 12 4C14.1726 4 14.4452 4.00935 15.2983 4.04847C16.1499 4.08716 16.7313 4.22236 17.2402 4.41986C17.774 4.62075 18.2577 4.9358 18.6573 5.3429C19.0642 5.74256 19.3793 6.22598 19.5799 6.75978C19.7778 7.26871 19.9131 7.85013 19.952 8.70174C19.9909 9.55485 20 9.82738 20 12C20 14.1726 19.9909 14.4452 19.9517 15.2983ZM18.2365 7.28175C18.1083 6.93439 17.9038 6.61998 17.638 6.3619C17.38 6.09617 17.0658 5.89166 16.7182 5.76347C16.4363 5.65399 16.0128 5.52368 15.2329 5.48817C14.3891 5.4497 14.1361 5.44141 12.0001 5.44141C9.86381 5.44141 9.61084 5.44948 8.7673 5.48796C7.98732 5.52368 7.56364 5.65399 7.28197 5.76347C6.93439 5.89166 6.61998 6.09617 6.36211 6.3619C6.09638 6.61998 5.89187 6.93418 5.76347 7.28175C5.65399 7.56364 5.52368 7.98732 5.48817 8.7673C5.4497 9.61084 5.44141 9.86381 5.44141 12.0001C5.44141 14.1361 5.4497 14.3891 5.48817 15.2329C5.52368 16.0128 5.65399 16.4363 5.76347 16.7182C5.89187 17.0658 6.09617 17.38 6.3619 17.638C6.61998 17.9038 6.93418 18.1083 7.28175 18.2365C7.56364 18.3462 7.98732 18.4765 8.7673 18.512C9.61084 18.5505 9.8636 18.5585 11.9999 18.5585C14.1363 18.5585 14.3893 18.5505 15.2326 18.512C16.0126 18.4765 16.4363 18.3462 16.7182 18.2365C17.4159 17.9673 17.9673 17.4159 18.2365 16.7182C18.346 16.4363 18.4763 16.0128 18.512 15.2329C18.5505 14.3891 18.5585 14.1361 18.5585 12.0001C18.5585 9.86381 18.5505 9.61084 18.512 8.7673C18.4765 7.98732 18.3462 7.56364 18.2365 7.28175ZM12.0001 16.1079C9.73116 16.1079 7.89187 14.2688 7.89187 11.9999C7.89187 9.73095 9.73116 7.89187 12.0001 7.89187C14.2688 7.89187 16.1081 9.73095 16.1081 11.9999C16.1081 14.2688 14.2688 16.1079 12.0001 16.1079ZM16.2705 8.68949C15.7403 8.68949 15.3105 8.25965 15.3105 7.72946C15.3105 7.19927 15.7403 6.76942 16.2705 6.76942C16.8007 6.76942 17.2305 7.19927 17.2305 7.72946C17.2303 8.25965 16.8007 8.68949 16.2705 8.68949ZM11.9987 14.6668C13.4715 14.6668 14.6654 13.473 14.6654 12.0002C14.6654 10.5274 13.4715 9.3335 11.9987 9.3335C10.5259 9.3335 9.33203 10.5274 9.33203 12.0002C9.33203 13.473 10.5259 14.6668 11.9987 14.6668Z" fill="#3D3935"/>
</g>
</svg>
