<svg width="117" height="44" viewBox="0 0 117 44" fill="none" xmlns="http://www.w3.org/2000/svg">
<g id="lumi-nordic-logo.svg" clip-path="url(#clip0_202_20)">
<g id="Clip path group">
<mask id="mask0_202_20" style="mask-type:luminance" maskUnits="userSpaceOnUse" x="0" y="0" width="117" height="44">
<g id="a">
<path id="Vector" d="M116.96 0H0V43.3H116.96V0Z" fill="white"/>
</g>
</mask>
<g mask="url(#mask0_202_20)">
<g id="Group">
<path id="Vector_2" d="M38.74 21.4L32.6 15.26V11.56L42.44 21.4H38.74ZM32.6 28.04L38.74 21.9H42.44L32.6 31.74V28.04ZM21.9 38.74L28.04 32.6H31.74L21.9 42.44V38.74ZM15.26 32.6L21.39 38.73V42.43L11.55 32.59H15.25L15.26 32.6ZM10.69 28.04V31.74L0.86 21.9H4.57L10.7 28.04H10.69ZM10.69 15.26L4.56 21.39H0.86L10.7 11.55V15.25L10.69 15.26ZM21.39 4.56L15.26 10.69H11.56L21.4 0.86V4.56H21.39ZM28.03 10.69L21.89 4.55V0.86L31.73 10.7H28.03V10.69ZM32.09 11.55V15.25L25.95 21.38H22.25L32.09 11.54V11.55ZM38.27 21.64L32.34 27.57L26.41 21.64L32.34 15.71L38.27 21.64ZM25.95 21.89L32.09 28.03V31.73L22.25 21.89H25.95ZM11.19 28.03L17.33 21.89H21.03L11.19 31.73V28.03ZM5.01 21.64L10.93 15.71L16.86 21.64L10.93 27.57L5.01 21.64ZM11.75 12.11L21.02 21.39H17.32L11.18 15.26V11.56L11.74 12.12L11.75 12.11ZM15.71 10.94L21.64 5.01L27.57 10.94L21.64 16.87L15.71 10.94ZM27.56 32.34L21.63 38.27L15.7 32.34L21.63 26.41L27.56 32.34ZM31.72 11.19L21.88 21.03V17.33L28.02 11.19H31.72ZM15.24 11.19L21.37 17.32V21.02L11.53 11.18H15.23L15.24 11.19ZM11.54 32.09L21.38 22.25V25.95L15.25 32.08H11.55L11.54 32.09ZM28.02 32.09L21.88 25.95V22.25L26.15 26.52L31.72 32.09H28.02ZM43.21 21.47L32.51 10.77L21.83 0.07C21.83 0.07 21.72 0 21.65 0C21.58 0 21.52 0.03 21.47 0.07L10.77 10.77L0.07 21.48C0.07 21.48 0 21.59 0 21.65C0 21.72 0.03 21.78 0.07 21.83L10.77 32.53L21.47 43.23C21.47 43.23 21.58 43.3 21.65 43.3C21.72 43.3 21.78 43.27 21.83 43.23L32.52 32.54L43.22 21.84C43.32 21.74 43.32 21.58 43.22 21.48" fill="#3D3935"/>
<path id="Vector_3" d="M56.3791 8.6001H55.3691V34.7101H67.3091V33.7901H56.3791V8.6001Z" fill="#3D3935"/>
<path id="Vector_4" d="M85.1604 25.29C85.1604 26.84 85.0904 27.92 84.9704 28.54C84.7604 29.63 84.3004 30.61 83.5704 31.48C82.2704 33.05 80.5004 33.84 78.2404 33.84C75.9804 33.84 74.2004 32.96 72.8804 31.21C72.2004 30.31 71.7604 29.31 71.5604 28.23C71.4604 27.61 71.4004 26.53 71.4004 24.98V8.53003H70.4004V24.95C70.4004 27.58 70.7404 29.52 71.4004 30.77C72.0704 32.02 73.0304 33 74.2604 33.71C75.5004 34.42 76.8204 34.77 78.2404 34.77C80.6904 34.77 82.6904 33.9 84.2304 32.14C84.9504 31.32 85.4504 30.4 85.7304 29.39C86.0204 28.39 86.1604 27.01 86.1604 25.26V8.53003H85.1504V25.29H85.1604Z" fill="#3D3935"/>
<path id="Vector_5" d="M116.949 8.6001H115.949V34.7201H116.949V8.6001Z" fill="#3D3935"/>
<path id="Vector_6" d="M111.57 12.2801V34.7201H112.55V8.59009H111.63L101.14 19.0101C101.14 19.0101 101.06 19.0801 101.01 19.0801C100.95 19.0801 100.91 19.0601 100.87 19.0101L90.42 8.59009H89.5V34.7201H90.48V12.2801V10.1001L100.91 20.4601L100.93 20.4801H101.15C101.15 20.4801 101.17 20.4701 101.17 20.4601L111.55 10.1001V12.3201C111.55 12.3201 111.55 12.3001 111.55 12.2801" fill="#3D3935"/>
</g>
</g>
</g>
</g>
<defs>
<clipPath id="clip0_202_20">
<rect width="117" height="44" fill="white"/>
</clipPath>
</defs>
</svg>
