<svg width="24" height="24" viewBox="0 0 24 24" fill="none" xmlns="http://www.w3.org/2000/svg">
<g id="tiktok.svg">
<path id="Vector" d="M16.6001 5.82C15.9165 5.03962 15.5398 4.03743 15.5401 3H12.4501V15.4C12.4263 16.071 12.143 16.7066 11.6599 17.1729C11.1768 17.6393 10.5316 17.8999 9.86016 17.9C8.44016 17.9 7.26016 16.74 7.26016 15.3C7.26016 13.58 8.92016 12.29 10.6301 12.82V9.66C7.18016 9.2 4.16016 11.88 4.16016 15.3C4.16016 18.63 6.92016 21 9.85016 21C12.9901 21 15.5401 18.45 15.5401 15.3V9.01C16.7931 9.90985 18.2975 10.3926 19.8401 10.39V7.3C19.8401 7.3 17.9601 7.39 16.6001 5.82Z" fill="#3D3935"/>
</g>
</svg>
