<svg width="64" height="40" viewBox="0 0 64 40" fill="none" xmlns="http://www.w3.org/2000/svg">
<rect width="64" height="40" rx="6" fill="#263F6A"/>
<g clip-path="url(#clip0_6481_15825)">
<path fill-rule="evenodd" clip-rule="evenodd" d="M17.6221 25.3597L17.9237 23.6885L21.8833 19.5328H18.9475L19.2788 17.6509H25.6626L25.3764 19.2771L21.3413 23.4473H24.759L24.4277 25.3597H17.6221Z" fill="white"/>
<path fill-rule="evenodd" clip-rule="evenodd" d="M14.1445 25.3597L15.9664 15.0314H18.9026L17.0807 25.3597H14.1445Z" fill="white"/>
<path d="M46.744 23.6125C47.2753 23.6125 47.6379 23.2186 47.827 22.4284C48.016 21.6383 48.1119 20.9802 48.1119 20.4467C48.1119 19.6384 47.8164 19.2343 47.2312 19.2343C46.7104 19.2343 46.3505 19.6384 46.1482 20.444C45.9486 21.2523 45.8501 21.9103 45.8501 22.4205C45.8501 23.2159 46.1482 23.6121 46.744 23.6121V23.6125ZM46.6221 25.4803C45.555 25.4803 44.6585 25.1619 43.9332 24.5272C43.208 23.8925 42.8428 23.0273 42.8428 21.9289C42.8428 20.6079 43.265 19.5222 44.1068 18.6725C44.9486 17.8227 46.0135 17.3978 47.2983 17.3978C48.4718 17.3978 49.4046 17.7295 50.0963 18.3951C50.7853 19.0607 51.1324 19.8822 51.1324 20.8587C51.1324 22.3096 50.6868 23.4442 49.8008 24.2574C48.9122 25.0736 47.8526 25.4803 46.6221 25.4803Z" fill="white"/>
<path fill-rule="evenodd" clip-rule="evenodd" d="M11.33 21.7765C10.7678 21.7765 10.2912 21.8891 9.89947 22.1153C9.50816 22.341 8.93267 22.9509 9.23035 23.4703C9.51346 23.9641 10.5222 23.7022 10.8857 23.1421C11.1772 22.693 11.33 21.7765 11.33 21.7765ZM11.0438 24.2459C10.8133 24.6173 10.4365 24.9159 9.91449 25.1416C9.39244 25.3677 8.8355 25.4803 8.24322 25.4803C7.60104 25.4803 7.07855 25.3399 6.67752 25.059C6.22569 24.7379 6 24.2763 6 23.6739L6.01502 23.3577C6.22569 22.1934 6.96857 21.3653 8.24322 20.8733C9.12656 20.5319 10.2254 20.3614 11.5403 20.3614C11.5403 20.3614 11.762 19.8314 11.3972 19.4957C11.2558 19.3654 11.0535 19.3076 10.8022 19.3076C10.5311 19.3076 10.2727 19.3827 10.0267 19.5333C9.78111 19.6839 9.62785 19.8897 9.56778 20.1507L6.8427 19.925C7.17395 19.1022 7.75607 18.4848 8.58905 18.0731C9.35181 17.7021 10.2652 17.5162 11.3291 17.5162C12.3931 17.5162 13.1607 17.6518 13.6629 17.923C14.2552 18.2441 14.5511 18.7811 14.5511 19.5337C14.5511 19.6645 14.5242 20.0355 14.4906 20.2112L13.8581 23.8545C13.8082 24.1756 13.783 24.457 13.783 24.6977C13.783 24.9786 13.8029 25.1994 13.8431 25.3602H10.9975C10.8552 25.0197 11.0425 24.2463 11.0425 24.2463L11.0438 24.2459Z" fill="white"/>
<path fill-rule="evenodd" clip-rule="evenodd" d="M30.3867 21.7765C29.8244 21.7765 29.3479 21.8891 28.9561 22.1153C28.5648 22.341 27.9893 22.9509 28.287 23.4703C28.5701 23.9641 29.5789 23.7022 29.9424 23.1421C30.2339 22.693 30.3867 21.7765 30.3867 21.7765ZM30.1005 24.2459C29.8699 24.6173 29.4932 24.9159 28.9711 25.1416C28.4491 25.3677 27.8921 25.4803 27.2999 25.4803C26.6577 25.4803 26.1352 25.3399 25.7342 25.059C25.2823 24.7379 25.0566 24.2763 25.0566 23.6739L25.0717 23.3577C25.2823 22.1934 26.0252 21.3653 27.2999 20.8733C28.1832 20.5319 29.2821 20.3614 30.5969 20.3614C30.5969 20.3614 30.8186 19.8314 30.4538 19.4957C30.3125 19.3654 30.1102 19.3076 29.8589 19.3076C29.5877 19.3076 29.3293 19.3827 29.0833 19.5333C28.8377 19.6839 28.6845 19.8897 28.6244 20.1507L25.8993 19.925C26.2306 19.1022 26.8127 18.4848 27.6457 18.0731C28.4084 17.7021 29.3218 17.5162 30.3858 17.5162C31.4498 17.5162 32.2174 17.6518 32.7196 17.923C33.3118 18.2441 33.6077 18.7811 33.6077 19.5337C33.6077 19.6645 33.5808 20.0355 33.5472 20.2112L32.9148 23.8545C32.8649 24.1756 32.8397 24.457 32.8397 24.6977C32.8397 24.9786 32.8596 25.1994 32.8998 25.3602H30.0541C29.9119 25.0197 30.0991 24.2463 30.0991 24.2463L30.1005 24.2459Z" fill="white"/>
<path d="M40.7808 20.0774C41.4544 19.9246 41.9906 19.6291 42.392 19.1861C42.7909 18.7431 42.9905 18.2043 42.9905 17.5723C42.9905 16.9946 42.8222 16.4919 42.4852 16.0622C42.1487 15.632 41.7339 15.3471 41.2366 15.2098C40.742 15.0698 40.1046 15 39.3247 15H35.0449L33.3145 25.3597H38.9594C40.2261 25.3597 41.1302 25.0568 41.6743 24.4477C42.2185 23.8413 42.4905 23.1368 42.4905 22.3312C42.4905 21.2275 41.9208 20.4762 40.7808 20.0774ZM39.2421 22.7636C39.0583 22.9655 38.7266 23.0666 38.2474 23.0666H36.6981L37.0245 21.1237H38.3225C38.7187 21.1237 39.0142 21.2142 39.2138 21.3931C39.4161 21.5746 39.5141 21.8101 39.5141 22.1029C39.5141 22.3414 39.4236 22.5613 39.2421 22.7636ZM38.5738 18.9529H37.3902L37.6852 17.1862H38.8689C39.6175 17.1862 39.9933 17.461 39.9933 18.0126C39.9933 18.6393 39.5194 18.9529 38.5738 18.9529Z" fill="white"/>
<path d="M59.0002 17.6942L56.2363 21.2302L58.2335 25.3597H55.0676L53.876 22.8237L52.0939 25.3597H49.5967L52.8063 21.1008L51.1743 17.6942H54.2801L55.205 19.5774L56.5702 17.6942H59.0002Z" fill="white"/>
</g>
<defs>
<clipPath id="clip0_6481_15825">
<rect width="53" height="10.4803" fill="white" transform="translate(6 15)"/>
</clipPath>
</defs>
</svg>
