<svg width="64" height="40" viewBox="0 0 64 40" fill="none" xmlns="http://www.w3.org/2000/svg">
<rect width="64" height="40" rx="6" fill="#F0EBFF"/>
<path d="M42.0625 15.1875L32.5 20.5M32.5 20.5L22.9375 15.1875M32.5 20.5L32.5 31.1875M42.625 20.5V15.9342C42.625 15.5487 42.625 15.3559 42.5682 15.1841C42.518 15.032 42.4358 14.8924 42.3273 14.7746C42.2046 14.6415 42.0361 14.5479 41.6992 14.3607L33.3742 9.73568C33.0551 9.55842 32.8956 9.4698 32.7266 9.43505C32.5771 9.4043 32.4229 9.4043 32.2734 9.43505C32.1044 9.4698 31.9449 9.55843 31.6258 9.73568L23.3008 14.3607C22.9639 14.5479 22.7954 14.6415 22.6727 14.7746C22.5642 14.8924 22.482 15.032 22.4318 15.1841C22.375 15.356 22.375 15.5487 22.375 15.9342V25.0659C22.375 25.4514 22.375 25.6441 22.4318 25.816C22.482 25.9681 22.5642 26.1077 22.6727 26.2255C22.7954 26.3586 22.9639 26.4522 23.3008 26.6394L31.6258 31.2644C31.9449 31.4416 32.1044 31.5303 32.2734 31.565C32.4229 31.5958 32.5771 31.5958 32.7266 31.565C32.8956 31.5303 33.0551 31.4416 33.3742 31.2644L33.625 31.125M27.4375 12.0625L37.5625 17.6875M43.75 31.1875L42.625 30.0625M43.75 27.25C43.75 29.114 42.239 30.625 40.375 30.625C38.511 30.625 37 29.114 37 27.25C37 25.3861 38.511 23.875 40.375 23.875C42.239 23.875 43.75 25.3861 43.75 27.25Z" stroke="#260071" stroke-width="2.25" stroke-linecap="round" stroke-linejoin="round"/>
</svg>
