<svg width="64" height="40" viewBox="0 0 64 40" fill="none" xmlns="http://www.w3.org/2000/svg">
<rect width="64" height="40" rx="6" fill="white"/>
<g clip-path="url(#clip0_2786_40109)">
<path d="M10 22.8014H15.4564L15.1429 23.2404H10V22.8014Z" fill="#D40511"/>
<path d="M54.9998 23.2404H48.3203L48.6653 22.8014H55.0311V23.2404H54.9998Z" fill="#D40511"/>
<path d="M10 21.9861H16.0836L15.7387 22.4251H10V21.9861Z" fill="#D40511"/>
<path d="M10 21.1707H16.7108L16.3659 21.6097H10V21.1707Z" fill="#D40511"/>
<path d="M55.0005 22.4251H48.9482L49.2932 21.9861H55.0319V22.4251H55.0005Z" fill="#D40511"/>
<path d="M49.8899 21.1707H55.0014V21.6098H49.5449L49.8899 21.1707Z" fill="#D40511"/>
<path d="M15.8945 23.2404L18.7795 19.3833C18.7795 19.3833 21.9782 19.3833 22.3545 19.3833C22.7621 19.3833 22.7621 19.5401 22.5426 19.7909C22.3545 20.0418 22.0095 20.5122 21.8214 20.7631C21.7273 20.9199 21.5391 21.1394 22.135 21.1394C22.7935 21.1394 26.9329 21.1394 26.9329 21.1394C26.5566 21.7038 25.2395 23.2718 22.9189 23.2718C21.0374 23.2404 15.8945 23.2404 15.8945 23.2404Z" fill="#D40511"/>
<path d="M32.423 21.1707L30.8551 23.2718H26.7471L28.315 21.1707H32.423Z" fill="#D40511"/>
<path d="M38.4114 21.1707L36.8435 23.2717H32.7041L34.272 21.1707H38.4114Z" fill="#D40511"/>
<path d="M39.7598 21.1707C39.7598 21.1707 39.4462 21.5784 39.3208 21.7665C38.7877 22.4564 39.258 23.2718 40.9514 23.2718C42.8957 23.2718 47.5995 23.2718 47.5995 23.2718L49.1675 21.1707H39.7598Z" fill="#D40511"/>
<path d="M17.9347 17L16.4922 18.9129C16.4922 18.9129 23.9242 18.9129 24.3319 18.9129C24.7396 18.9129 24.7396 19.0697 24.5201 19.3205C24.3319 19.5714 23.987 20.0418 23.7988 20.2927C23.7047 20.4181 23.5166 20.669 24.1124 20.669C24.7709 20.669 27.311 20.669 27.311 20.669C27.311 20.669 27.8441 19.9791 28.2518 19.3833C28.8476 18.5993 28.3145 16.9686 26.2134 16.9686C24.3319 17 17.9347 17 17.9347 17Z" fill="#D40511"/>
<path d="M38.7558 20.669H28.6582L31.4178 17H35.5572L33.9892 19.101H35.8394L37.4073 17H41.5467L38.7558 20.669Z" fill="#D40511"/>
<path d="M47.2553 17L44.4957 20.669H40.1055L42.8651 17H47.2553Z" fill="#D40511"/>
</g>
<defs>
<clipPath id="clip0_2786_40109">
<rect width="45" height="6.27176" fill="white" transform="translate(10 17)"/>
</clipPath>
</defs>
</svg>
