<svg width="64" height="40" viewBox="0 0 64 40" fill="none" xmlns="http://www.w3.org/2000/svg">
<rect width="64" height="40" rx="6" fill="#DC0032"/>
<g clip-path="url(#clip0_2786_40241)">
<path d="M17.3644 10.0507L9.42719 14.3803L18.2369 19.5039C18.317 19.5505 18.4078 19.6438 18.4078 19.7442L18.4071 27.2923C18.4071 27.3979 18.3137 27.4701 18.3031 27.4759L17.7779 27.7688C17.6964 27.8144 17.5768 27.8187 17.4577 27.7528L16.9894 27.4933C16.9214 27.4557 16.8625 27.3641 16.8625 27.2661V20.5875C16.8625 20.4699 16.7346 20.414 16.6489 20.3642L9 15.9119V24.8424C9 25.0399 9.18972 25.2656 9.35016 25.3603L17.2967 30.0477C17.5515 30.1979 17.7035 30.173 18.0558 29.9969L25.9086 25.3619C26.0916 25.2537 26.2701 25.052 26.2702 24.8289V15.9103L21.0023 18.9891C20.9361 19.0278 20.8164 19.0423 20.7474 19.0024L20.2705 18.7268C20.176 18.6721 20.0898 18.5626 20.0876 18.4477L20.0774 17.8906C20.0757 17.807 20.1317 17.6976 20.205 17.655L25.8407 14.3743L17.9047 10.0518C17.8419 10.0176 17.7369 9.99998 17.6319 9.99998C17.53 9.99998 17.428 10.0166 17.3644 10.0507Z" fill="white"/>
<path d="M36.8891 23.4019C36.7604 23.4308 35.9085 23.5209 35.5909 23.4692C34.2968 23.2585 33.674 22.5963 33.6604 21.4444C33.6461 20.217 34.1569 19.3261 35.6728 19.263C35.9299 19.2523 36.7775 19.4027 36.8816 19.4995L36.8891 23.4019ZM38.8459 24.8215V14.3154H36.8816V17.7606C36.6986 17.6537 35.8954 17.5095 35.2647 17.527C33.1643 17.5854 31.6037 19.2434 31.6464 21.2689C31.7022 23.9177 33.2638 25.0289 35.7125 25.184C36.9667 25.2636 38.4717 24.8818 38.8459 24.8215Z" fill="white"/>
<path d="M53.0434 23.4019C52.9147 23.4308 52.0628 23.5209 51.7452 23.4692C50.4511 23.2585 49.8282 22.5963 49.8147 21.4444C49.8004 20.217 50.3112 19.3261 51.8271 19.263C52.0842 19.2523 52.9318 19.4027 53.0359 19.4995L53.0434 23.4019ZM55.0002 24.8215V14.3154H53.0359V17.7606C52.8529 17.6537 52.0497 17.5095 51.419 17.527C49.3186 17.5854 47.758 19.2434 47.8007 21.2689C47.8565 23.9177 49.4181 25.0289 51.8668 25.184C53.121 25.2636 54.626 24.8818 55.0002 24.8215Z" fill="white"/>
<path d="M39.9482 18.1437V28.0092H41.9363L41.9288 19.4293C42.0575 19.4005 42.9031 19.2869 43.2243 19.3059C44.5351 19.3828 45.1315 20.1144 45.1618 21.2672C45.1812 22.0038 44.9362 22.615 44.4552 22.9962C44.0929 23.2834 43.5888 23.4326 43.0055 23.4491L43.0089 25.1746C43.9246 25.2012 44.8509 25.0081 45.5851 24.5348C46.537 23.9211 47.2133 22.5605 47.1759 21.267C47.1084 18.928 45.7911 17.5967 43.1105 17.5399C41.854 17.5135 40.3295 17.9529 39.9482 18.1437Z" fill="white"/>
</g>
<defs>
<clipPath id="clip0_2786_40241">
<rect width="46" height="20.1463" fill="white" transform="translate(9 10)"/>
</clipPath>
</defs>
</svg>
