<svg width="64" height="40" viewBox="0 0 64 40" fill="none" xmlns="http://www.w3.org/2000/svg">
<rect width="64" height="40" rx="6" fill="#EC6500"/>
<path d="M30.3132 12.9417C30.2393 12.7806 30.12 12.6444 29.97 12.55C29.8199 12.4556 29.6456 12.4069 29.4683 12.41H26.2399L26.0924 12.6336C26.0189 12.7445 25.2915 13.8321 24.1985 15.3603L24.1705 15.3992C22.9764 17.0764 21.6908 18.6866 20.3197 20.2225C16.7765 24.1682 15.263 24.924 14.5812 25.2465C14.5493 25.2616 14.5201 25.2752 14.4929 25.2889C13.7155 25.6632 12.862 25.8526 11.9992 25.8424C11.001 25.8425 10.0194 25.587 9.14789 25.1003C8.2764 24.6136 7.54409 23.9117 7.02072 23.0617C6.49735 22.2118 6.20036 21.2419 6.15806 20.2446C6.11576 19.2473 6.32956 18.2558 6.77907 17.3645C7.22859 16.4733 7.89885 15.712 8.72599 15.1532C9.55312 14.5944 10.5096 14.2567 11.5042 14.1723C12.4988 14.0879 13.4985 14.2597 14.4079 14.6712C15.3174 15.0827 16.1063 15.7202 16.6995 16.523L17.9975 14.7057C17.1132 13.7039 15.992 12.9396 14.7363 12.4825C13.4806 12.0255 12.1305 11.8902 10.8091 12.0891C9.48768 12.2881 8.23717 12.8148 7.17171 13.6213C6.10625 14.4278 5.25977 15.4884 4.70958 16.7061C4.15938 17.9239 3.92299 19.26 4.02198 20.5927C4.12098 21.9253 4.5522 23.2118 5.27629 24.3349C6.00037 25.458 6.99425 26.3819 8.16718 27.0221C9.34011 27.6623 10.6547 27.9985 11.991 28C16.7244 28 20.4442 24.721 22.8317 22.256C24.7065 20.3186 29.9934 14.2249 30.0463 14.1654L30.0428 14.1619C30.1999 14.0062 30.309 13.8087 30.3573 13.5928C30.4056 13.377 30.3909 13.1518 30.3151 12.944" fill="white"/>
<path d="M15.305 20.7055C14.4543 21.8962 13.2746 23.1561 11.6852 23.004C10.9423 22.9256 10.2546 22.575 9.75493 22.0196C9.25523 21.4643 8.97887 20.7435 8.97914 19.9965C8.97401 19.6017 9.04908 19.2099 9.19978 18.845C9.35048 18.4801 9.57369 18.1496 9.85589 17.8734C10.1999 17.5256 10.6233 17.2666 11.0897 17.1188C11.556 16.971 12.0513 16.9387 12.5329 17.0249C13.0145 17.111 13.4679 17.3129 13.8541 17.6132C14.2404 17.9135 14.5478 18.3031 14.7499 18.7486C14.7988 18.8538 14.8409 18.962 14.876 19.0726L16.2844 17.1037L16.216 16.987C15.7001 16.2641 15.0071 15.686 14.2033 15.3082C13.3996 14.9304 12.5123 14.7656 11.6265 14.8296C10.7408 14.8936 9.88635 15.1843 9.14532 15.6737C8.40429 16.1631 7.80155 16.8349 7.39498 17.6244C6.98841 18.414 6.79168 19.2948 6.82368 20.1823C6.85567 21.0698 7.11532 21.9341 7.57769 22.6924C8.04005 23.4506 8.6896 24.0772 9.46395 24.512C10.2383 24.9468 11.1114 25.1752 11.9995 25.1752C12.7621 25.1876 13.5169 25.0197 14.2023 24.6851L14.296 24.6408C14.8861 24.3619 16.37 23.6193 19.8237 19.7736C21.1783 18.2561 22.4485 16.6654 23.6286 15.0087L23.6566 14.9698C24.5513 13.7173 25.2001 12.7643 25.4405 12.4068H21.2563H21.2477C21.1956 12.4796 16.0861 19.6444 15.6738 20.1968L15.305 20.7055Z" fill="white"/>
<path d="M32.584 15.1338H36.0027V16.0285H33.7019V16.7796H35.8023V17.6442H33.7019V18.4611H36.0626V19.423H32.5844L32.584 15.1338Z" fill="white"/>
<path d="M37.6597 17.1705L36.2618 15.1342H37.5777L38.2984 16.4676L39.0612 15.1342H40.3347L38.9457 17.1705L40.4596 19.423H39.1013L38.2965 17.9935L37.4194 19.423H36.1357L37.6597 17.1705Z" fill="white"/>
<path d="M40.6035 15.1342H42.6398C43.4387 15.1342 44.1898 15.5006 44.1898 16.5158C44.1898 17.5789 43.583 17.9939 42.6398 17.9939H41.721V19.423H40.6035V15.1342ZM41.721 17.1281H42.4718C42.8218 17.1281 43.0727 16.9841 43.0727 16.5936C43.079 16.5147 43.0674 16.4353 43.0389 16.3615C43.0104 16.2876 42.9656 16.2211 42.9079 16.1669C42.8502 16.1126 42.781 16.0721 42.7055 16.0482C42.6301 16.0243 42.5502 16.0177 42.4718 16.0288H41.721V17.1281Z" fill="white"/>
<path d="M44.4355 15.1342H46.6223C47.3793 15.1342 48.1242 15.4765 48.1242 16.34C48.1363 16.5667 48.0782 16.7917 47.9578 16.9842C47.8374 17.1767 47.6605 17.3273 47.4512 17.4155V17.4276C47.9075 17.5353 48.0398 18.046 48.0759 18.4545C48.0876 18.6346 48.1059 19.2655 48.256 19.4214H47.151C47.0706 19.202 47.0278 18.9705 47.0245 18.7368C46.995 18.3043 46.923 17.8597 46.4002 17.8597H45.5531V19.423H44.4355V15.1342ZM45.5531 16.9962H46.4905C46.5595 17.0052 46.6296 16.9984 46.6956 16.9764C46.7617 16.9543 46.8218 16.9175 46.8715 16.8688C46.9212 16.8201 46.9592 16.7608 46.9826 16.6952C47.006 16.6297 47.0143 16.5597 47.0067 16.4905C47.0067 16.172 46.7546 16.0277 46.4423 16.0277H45.5531V16.9962Z" fill="white"/>
<path d="M48.4975 15.1338H51.9154V16.0285H49.6146V16.7796H51.715V17.6442H49.6146V18.4611H51.9753V19.423H48.4971L48.4975 15.1338Z" fill="white"/>
<path d="M53.2416 17.9815C53.2657 18.4872 53.578 18.6482 54.0526 18.6482C54.3886 18.6482 54.7375 18.528 54.7375 18.2098C54.7375 17.831 54.1249 17.759 53.5061 17.5851C52.8934 17.4105 52.2505 17.1343 52.2505 16.3474C52.2505 15.4104 53.1941 15.044 53.9985 15.044C54.8515 15.044 55.71 15.4578 55.7166 16.4252H54.5995C54.6177 16.0362 54.2494 15.9087 53.9086 15.9087C53.6683 15.9087 53.368 15.9931 53.368 16.2751C53.368 16.6057 53.9868 16.664 54.6127 16.8399C55.2315 17.0141 55.8574 17.3024 55.8574 18.0772C55.8574 19.1644 54.9324 19.5129 53.9903 19.5129C53.0051 19.5129 52.1342 19.0803 52.1279 17.9811L53.2416 17.9815Z" fill="white"/>
<path d="M57.0701 17.9815C57.0942 18.4872 57.4065 18.6482 57.8807 18.6482C58.2172 18.6482 58.5657 18.528 58.5657 18.2098C58.5657 17.831 57.9534 17.759 57.3346 17.5851C56.7215 17.4105 56.079 17.1343 56.079 16.3474C56.079 15.4104 57.0218 15.044 57.827 15.044C58.68 15.044 59.5385 15.4578 59.5451 16.4252H58.4276C58.4455 16.0362 58.0775 15.9087 57.7368 15.9087C57.4964 15.9087 57.1957 15.9931 57.1957 16.2751C57.1957 16.6057 57.8146 16.664 58.4404 16.8399C59.0593 17.0141 59.6851 17.3024 59.6851 18.0772C59.6851 19.1644 58.7602 19.5129 57.8181 19.5129C56.8332 19.5129 55.9619 19.0803 55.9561 17.9811L57.0701 17.9815Z" fill="white"/>
<path d="M34.5363 20.35C35.888 20.35 36.6504 21.3411 36.6504 22.5843C36.6504 23.8274 35.8876 24.8189 34.5363 24.8189C33.185 24.8189 32.4219 23.8274 32.4219 22.5843C32.4219 21.3411 33.1846 20.35 34.5363 20.35ZM34.5363 23.8578C35.2571 23.8578 35.5337 23.221 35.5337 22.5843C35.5337 21.9475 35.2571 21.3112 34.5363 21.3112C33.8156 21.3112 33.5394 21.9479 33.5394 22.5843C33.5394 23.2206 33.8156 23.8578 34.5363 23.8578Z" fill="white"/>
<path d="M36.9346 20.4398H38.082L39.5718 23.0829H39.5839V20.4398H40.6341V24.7287H39.4866L37.9969 22.056H37.9848V24.7287H36.9346V20.4398Z" fill="white"/>
<path d="M41.0938 20.4398H44.5117V21.3345H42.2109V22.0856H44.3113V22.9503H42.2109V23.7671H44.5727V24.7283H41.0945L41.0938 20.4398Z" fill="white"/>
</svg>
