<svg width="64" height="40" viewBox="0 0 64 40" fill="none" xmlns="http://www.w3.org/2000/svg">
<rect width="64" height="40" rx="6" fill="#061AB1"/>
<g clip-path="url(#clip0_6481_15564)">
<path d="M57.5605 26.2466C57.5605 26.1839 57.5605 26.1211 57.5605 26.0647C57.5668 26.0584 57.5668 26.0647 57.5731 26.0647C57.5731 26.1274 57.5731 26.1839 57.5731 26.2466C57.5731 26.2529 57.5668 26.2529 57.5605 26.2466Z" fill="#FDDB3F"/>
<path d="M57.5731 26.0646C57.5668 26.0646 57.5668 26.0646 57.5605 26.0646C57.5605 26.0207 57.5605 25.9768 57.5605 25.9329C57.5668 25.9329 57.5668 25.9329 57.5731 25.9329C57.5731 25.9768 57.5731 26.0207 57.5731 26.0646Z" fill="#FDEB94"/>
<path d="M57.5605 26.2466C57.5668 26.2466 57.5668 26.2466 57.5731 26.2466C57.5731 26.2842 57.5731 26.3156 57.5731 26.3533C57.548 26.3219 57.5668 26.2842 57.5605 26.2466Z" fill="#FEE679"/>
<path d="M16.243 11.458C17.1214 11.502 17.981 11.6212 18.8468 11.7843C19.3111 11.8721 19.7754 11.9725 20.2272 12.1231C20.2962 12.1482 20.3652 12.1796 20.4343 12.1984C20.497 12.2172 20.5158 12.2486 20.5158 12.3176C20.5158 13.7231 20.5158 15.1348 20.5158 16.5402C20.5158 16.6218 20.5158 16.7034 20.5158 16.7912C20.2523 16.7159 19.995 16.6406 19.7378 16.5653C18.9159 16.3332 18.0751 16.145 17.2281 16.032C16.4501 15.9254 15.6658 15.894 14.8815 16.0006C14.2039 16.0885 13.5576 16.2704 12.9741 16.6344C12.24 17.0924 11.7694 17.7512 11.4933 18.5606C11.3177 19.0876 11.2361 19.6335 11.2173 20.1919C11.1985 20.6876 11.2173 21.1832 11.2926 21.6789C11.3867 22.2624 11.5561 22.8208 11.8886 23.3165C12.3278 23.9628 12.949 24.3329 13.6956 24.5023C14.1035 24.5965 14.5176 24.6467 14.9317 24.6027C15.7097 24.5274 16.3936 24.2388 16.9081 23.6177C16.9332 23.5926 16.952 23.5612 16.9708 23.5298C16.9771 23.5236 16.9771 23.5173 16.9771 23.511C16.952 23.4985 16.9206 23.5047 16.8955 23.5047C15.9042 23.5047 14.9066 23.5047 13.9152 23.5047C13.8462 23.5047 13.8211 23.4922 13.8211 23.4169C13.8211 22.1997 13.8211 20.9887 13.8211 19.7715C13.8211 19.7025 13.8399 19.6837 13.909 19.6837C16.6885 19.6837 19.4617 19.6837 22.2413 19.6837C22.3103 19.6837 22.3291 19.7025 22.3291 19.7715C22.3291 22.7706 22.3291 25.776 22.3291 28.7752C22.3291 28.8379 22.3165 28.8567 22.2475 28.8567C21.1244 28.8567 20.0013 28.8567 18.8719 28.8567C18.7967 28.8567 18.7841 28.8316 18.7841 28.7626C18.7904 27.972 18.7967 27.1815 18.8029 26.3909C18.8029 26.3658 18.8029 26.3345 18.7904 26.3031C18.7653 26.347 18.7465 26.3909 18.7214 26.4348C18.37 27.0874 17.8555 27.5893 17.2532 27.9971C16.4375 28.543 15.5403 28.8756 14.574 29.0387C14.2917 29.0826 14.0156 29.114 13.727 29.1265C13.6956 29.1391 13.6643 29.1265 13.6329 29.1328C13.5701 29.1328 13.5074 29.1328 13.4447 29.1328C13.407 29.1328 13.3694 29.1328 13.338 29.1328C13.2627 29.1328 13.1811 29.1328 13.1058 29.1328C13.0682 29.1328 13.0306 29.1328 12.9866 29.1328C12.2212 29.1328 11.4745 29.0073 10.7404 28.794C10.3263 28.6748 9.92476 28.5179 9.53576 28.3234C9.00871 28.0599 8.51932 27.7274 8.07384 27.3321C7.59072 26.8991 7.15151 26.416 6.79388 25.8702C6.37977 25.2427 6.07233 24.5651 5.85273 23.8435C5.72097 23.3981 5.6143 22.94 5.55156 22.4757C5.50137 22.1369 5.45745 21.7981 5.45745 21.453C5.45745 21.3526 5.45117 21.2523 5.45117 21.1519C5.45117 21.1142 5.45117 21.0766 5.45117 21.0326C5.45117 20.9574 5.45117 20.8883 5.45117 20.813C5.45117 20.7315 5.45117 20.6436 5.45117 20.5621C5.45117 20.4931 5.45117 20.424 5.45117 20.355C5.45117 20.3174 5.45117 20.2797 5.45117 20.2358C5.45117 19.3574 5.59548 18.4978 5.84645 17.6571C5.99076 17.1802 6.17272 16.7159 6.39859 16.2704C6.69349 15.6869 7.06367 15.1411 7.4966 14.6454C8.00482 14.0556 8.58833 13.5474 9.23459 13.1145C9.85575 12.6941 10.5271 12.3678 11.2298 12.1106C12.0141 11.8219 12.8235 11.64 13.6517 11.5333C14.0658 11.4769 14.4862 11.4392 14.9003 11.4392C14.9317 11.4392 14.9568 11.4392 14.9881 11.4392C15.0258 11.4392 15.0634 11.4392 15.1011 11.4392C15.145 11.4329 15.1952 11.4455 15.2391 11.4329C15.465 11.4329 15.6909 11.4329 15.9167 11.4329C15.9607 11.4518 16.0109 11.4392 16.0548 11.4392C16.0861 11.4392 16.1175 11.4392 16.1426 11.4392C16.1803 11.458 16.2116 11.4455 16.243 11.458Z" fill="white"/>
<path d="M42.3381 29.1391C41.8612 29.1265 41.3844 29.1014 40.9138 29.0638C40.2738 29.0136 39.6401 28.9383 39.0064 28.8316C38.4543 28.7375 37.9084 28.6246 37.3751 28.4614C37.3124 28.4426 37.2935 28.4175 37.2935 28.3485C37.2935 26.8489 37.2935 25.3494 37.2935 23.8498C37.2935 23.7557 37.2935 23.7557 37.3814 23.7808C38.1029 24.0067 38.8433 24.1761 39.5899 24.3204C40.1609 24.4333 40.7381 24.5274 41.3154 24.6027C41.7734 24.6592 42.2377 24.6968 42.702 24.7094C43.1161 24.7219 43.5302 24.7031 43.938 24.6278C44.1702 24.5839 44.3961 24.5149 44.5968 24.3831C44.8729 24.2074 44.9921 23.9439 44.9357 23.6428C44.9106 23.4984 44.8227 23.3981 44.7035 23.3228C44.509 23.1973 44.2957 23.1283 44.0761 23.0781C43.3922 22.9212 42.7083 22.7644 42.0244 22.6138C41.2714 22.4506 40.5374 22.2373 39.8346 21.9048C39.0817 21.5471 38.4166 21.0703 37.921 20.3927C37.5131 19.8342 37.2684 19.2068 37.1429 18.5292C37.0739 18.159 37.0488 17.7888 37.0488 17.4124C37.0488 16.3959 37.2308 15.4234 37.7265 14.5262C38.2472 13.5725 39.0064 12.8635 39.9664 12.3553C40.6691 11.9851 41.4158 11.7529 42.1938 11.6149C42.6455 11.5333 43.1035 11.4894 43.5616 11.4643C43.5929 11.4518 43.6243 11.4643 43.6494 11.458C43.6808 11.458 43.7184 11.458 43.7498 11.458C43.7937 11.4518 43.8314 11.4643 43.8753 11.4518C44.0886 11.4518 44.2957 11.4518 44.509 11.4518C44.5529 11.4706 44.6031 11.458 44.647 11.458C44.6784 11.458 44.7161 11.458 44.7474 11.458C44.7788 11.458 44.8039 11.458 44.8353 11.458C45.2368 11.458 45.6384 11.4894 46.0337 11.5333C46.7238 11.6023 47.414 11.6902 48.0979 11.8094C48.5308 11.8847 48.9638 11.9662 49.3967 12.0729C49.5222 12.1043 49.5222 12.1106 49.5222 12.236C49.5222 13.6478 49.5222 15.0595 49.5222 16.4712C49.5222 16.4775 49.5222 16.4838 49.5222 16.4963C49.5222 16.603 49.5096 16.6092 49.403 16.5841C48.901 16.4587 48.3991 16.3457 47.8909 16.2516C47.3199 16.1449 46.7489 16.0446 46.178 15.9693C45.7827 15.9191 45.3874 15.8751 44.9858 15.8438C44.6408 15.8187 44.2894 15.8187 43.938 15.8312C43.5741 15.8438 43.2165 15.9002 42.8902 16.0759C42.6832 16.1889 42.52 16.3457 42.4698 16.5841C42.4134 16.8414 42.5138 17.0547 42.7459 17.2053C42.9153 17.3182 43.1036 17.3873 43.2981 17.4375C43.8627 17.5818 44.4274 17.7073 44.9984 17.8453C45.5192 17.9708 46.0462 18.0837 46.5544 18.2531C47.2822 18.4978 47.9787 18.8115 48.5936 19.2884C49.2524 19.7966 49.7481 20.4366 50.0367 21.2209C50.2061 21.6852 50.3065 22.1683 50.3504 22.664C50.3818 23.0404 50.388 23.4169 50.3629 23.7933C50.2876 24.8035 49.9928 25.7384 49.3904 26.5603C49.0265 27.0623 48.581 27.4764 48.0791 27.834C47.3826 28.3171 46.6109 28.6371 45.7952 28.8504C45.3309 28.9697 44.8604 29.0512 44.3898 29.1014C44.0635 29.1391 43.7373 29.1516 43.4173 29.1516C43.3733 29.1516 43.3294 29.1516 43.2855 29.1516C43.1977 29.1516 43.1098 29.1516 43.022 29.1516C42.9655 29.1516 42.909 29.1516 42.8526 29.1516C42.7396 29.1516 42.6267 29.1516 42.5138 29.1516C42.451 29.1391 42.3945 29.1516 42.3381 29.1391Z" fill="white"/>
<path d="M57.5729 26.3972C57.5352 26.4976 57.5352 26.6105 57.5164 26.7172C57.4035 27.2693 57.1651 27.7462 56.776 28.154C56.3117 28.6497 55.7408 28.9508 55.0694 29.0387C54.1408 29.1642 53.3252 28.9006 52.6413 28.2544C52.177 27.8152 51.8883 27.2693 51.788 26.6356C51.6499 25.7447 51.8695 24.9415 52.453 24.2576C52.9048 23.7306 53.4757 23.3918 54.1659 23.2914C55.2828 23.122 56.2176 23.4733 56.9392 24.3455C57.3156 24.8035 57.5164 25.3368 57.5666 25.9266C57.5792 25.9705 57.5666 26.0144 57.5729 26.0646C57.5729 26.1211 57.5729 26.1776 57.5729 26.2403C57.5792 26.278 57.5666 26.3156 57.5792 26.3533C57.5729 26.3658 57.5729 26.3846 57.5729 26.3972Z" fill="#FFD101"/>
<path d="M24.0678 20.2923C24.0678 17.4688 24.0678 14.6391 24.0678 11.8157C24.0678 11.7404 24.0866 11.7278 24.1556 11.7278C25.925 11.7278 27.7006 11.7278 29.47 11.7278C29.539 11.7278 29.5516 11.7467 29.5516 11.8157C29.5516 15.9755 29.5516 20.1354 29.5516 24.2953C29.5516 24.3957 29.5516 24.3957 29.6519 24.3957C31.5844 24.3957 33.5232 24.3957 35.4557 24.3957C35.531 24.3957 35.5435 24.4145 35.5435 24.4835C35.5435 25.9141 35.5435 27.3446 35.5435 28.7752C35.5435 28.8505 35.5184 28.863 35.4494 28.863C31.6848 28.863 27.9202 28.863 24.1556 28.863C24.0741 28.863 24.0615 28.8442 24.0615 28.7626C24.0678 25.9392 24.0678 23.1157 24.0678 20.2923Z" fill="white"/>
</g>
<defs>
<clipPath id="clip0_6481_15564">
<rect width="53.0243" height="18.5971" fill="white" transform="translate(5 11)"/>
</clipPath>
</defs>
</svg>
