<svg width="64" height="40" viewBox="0 0 64 40" fill="none" xmlns="http://www.w3.org/2000/svg">
<rect width="64" height="40" rx="6" fill="#FFCC05"/>
<g clip-path="url(#clip0_5933_80922)">
<path fill-rule="evenodd" clip-rule="evenodd" d="M38.245 20.9484C38.7809 20.4168 39.0496 19.7017 39.0496 18.8218C39.0496 17.8987 38.7824 17.1705 38.258 16.6447C37.722 16.1203 36.9563 15.8544 35.958 15.8544H32.8736V24.4793H34.3125V21.7517H36.0577C36.9736 21.7517 37.709 21.4859 38.245 20.9484ZM36.0822 17.2529C37.0849 17.2529 37.5905 17.7773 37.5905 18.8218C37.5905 19.3087 37.4533 19.6887 37.186 19.9603C36.9187 20.2333 36.5373 20.3648 36.0577 20.3648H34.3067V17.2515H36.0837L36.0822 17.2529ZM24.5839 15.8732H23.1436V24.498H24.5839V15.8732ZM54.5729 24.6382C54.8214 24.6382 55.0655 24.6064 55.2952 24.5501H55.3025V23.3596C55.1826 23.377 55.0612 23.3856 54.9413 23.3856C54.5801 23.3856 54.3432 23.3033 54.2305 23.1516C54.1366 23.0317 54.0875 22.7846 54.0875 22.4047V18.9114H55.327V17.7542H54.0875V15.8877H52.6905V22.4928C52.6905 23.2845 52.7901 23.8147 52.9953 24.1008C53.251 24.4619 53.774 24.6396 54.5715 24.6396L54.5729 24.6382ZM30.0506 24.511H31.465V20.1322C31.465 19.3983 31.2599 18.8276 30.8611 18.4231C30.4624 18.0114 29.9264 17.7715 29.2532 17.7715C27.7016 17.7715 25.9809 18.1573 25.9809 18.1573V24.5096H27.3953V19.1758C27.8879 19.0674 28.5669 18.9663 28.9902 18.9981C29.6765 19.0559 30.0492 19.524 30.0492 20.3908V24.5096L30.0506 24.511ZM45.7169 21.0813C45.7169 22.1186 45.4309 22.9551 44.8573 23.5879C44.2838 24.2207 43.5412 24.5371 42.6325 24.5371C41.7238 24.5371 40.974 24.2207 40.4077 23.5879C39.8341 22.9551 39.5481 22.1201 39.5481 21.0828C39.5481 20.0455 39.8341 19.2105 40.4077 18.5835C40.9812 17.9579 41.7223 17.6401 42.6325 17.6401C43.5427 17.6401 44.2968 17.9565 44.8703 18.5835C45.4309 19.2162 45.7169 20.0455 45.7169 21.0828V21.0813ZM44.2592 21.0871C44.2592 20.4356 44.1104 19.9227 43.8171 19.5427C43.5181 19.1628 43.1251 18.9735 42.6325 18.9735C42.1399 18.9735 41.7469 19.1642 41.4493 19.5485C41.1502 19.9343 41.0072 20.4471 41.0072 21.0871C41.0072 21.7271 41.156 22.2515 41.4493 22.6315C41.7483 23.0115 42.1413 23.2007 42.6325 23.2007C43.1237 23.2007 43.5181 23.01 43.8171 22.6315C44.1104 22.2515 44.2592 21.7387 44.2592 21.0871ZM51.1085 23.8855C51.6069 23.468 51.8569 22.9305 51.8569 22.279C51.8569 21.2663 51.24 20.6465 49.999 20.4124C49.476 20.3171 48.9458 20.2217 48.4098 20.1394C48.0299 20.0383 47.8435 19.849 47.8435 19.576C47.8435 19.1021 48.2552 18.8681 49.0831 18.8681C49.7303 18.8681 50.311 19.0963 50.8152 19.5514L51.6561 18.6528C50.9583 17.994 50.1175 17.6661 49.1264 17.6661C48.3101 17.6661 47.6557 17.8626 47.1631 18.2613C46.6704 18.6586 46.4277 19.1599 46.4277 19.7479C46.4277 20.3359 46.6271 20.7664 47.0316 21.0582C47.3812 21.298 47.9533 21.4757 48.7652 21.5957C49.4384 21.7026 49.8502 21.7849 50.0048 21.8427C50.272 21.9438 50.4035 22.1331 50.4035 22.4061C50.4035 22.6402 50.285 22.8424 50.0539 23.0013C49.8227 23.1603 49.5121 23.2412 49.1134 23.2412C48.4026 23.2412 47.7785 22.9753 47.2425 22.4437L46.1706 23.3553C46.8683 24.1282 47.8536 24.5125 49.1307 24.5125C49.947 24.5125 50.6072 24.3045 51.1056 23.8869L51.1085 23.8855Z" fill="#1D1D1D"/>
<path fill-rule="evenodd" clip-rule="evenodd" d="M13.7782 20.2578C13.7782 20.2578 12.6485 20.6956 11.2544 20.6956C9.86022 20.6956 8.73047 20.2578 8.73047 20.2578C8.73047 20.2578 9.86022 19.8201 11.2544 19.8201C12.6485 19.8201 13.7782 20.2578 13.7782 20.2578Z" fill="#FEFEFE"/>
<path fill-rule="evenodd" clip-rule="evenodd" d="M17.2653 13.8245C17.2653 13.8245 16.2641 13.1484 15.484 12.0143C14.7053 10.8788 14.4424 9.71439 14.4424 9.71439C14.4424 9.71439 15.4436 10.3891 16.2237 11.5246C17.0038 12.6601 17.2653 13.8245 17.2653 13.8245Z" fill="#FEFEFE"/>
<path fill-rule="evenodd" clip-rule="evenodd" d="M14.7108 16.5997C14.7108 16.5997 13.5045 16.4654 12.2736 15.8225C11.0427 15.1796 10.2539 14.2723 10.2539 14.2723C10.2539 14.2723 11.4602 14.4067 12.6911 15.0496C13.922 15.6925 14.7108 16.5997 14.7108 16.5997Z" fill="#FEFEFE"/>
<path fill-rule="evenodd" clip-rule="evenodd" d="M17.2653 26.6679C17.2653 26.6679 16.2641 27.344 15.484 28.4781C14.7053 29.6122 14.4424 30.7781 14.4424 30.7781C14.4424 30.7781 15.4436 30.1034 16.2237 28.9679C17.0038 27.8338 17.2653 26.6679 17.2653 26.6679Z" fill="#FEFEFE"/>
<path fill-rule="evenodd" clip-rule="evenodd" d="M14.7108 23.8926C14.7108 23.8926 13.5045 24.027 12.2736 24.6699C11.0427 25.3128 10.2539 26.22 10.2539 26.22C10.2539 26.22 11.4602 26.0857 12.6911 25.4428C13.922 24.7999 14.7108 23.8926 14.7108 23.8926Z" fill="#FEFEFE"/>
<path fill-rule="evenodd" clip-rule="evenodd" d="M17.6408 22.3656C18.5495 24.693 20.0101 26.3616 22.6192 26.7574C22.3216 26.7979 22.0196 26.8224 21.7105 26.8239C18.0135 26.8398 15.0013 23.9099 14.9854 20.2794C14.9695 16.6489 17.9528 13.6916 21.6498 13.6757C21.9792 13.6743 22.3028 13.6974 22.6206 13.7407C19.6316 14.1135 17.6379 16.4336 17.2435 19.3866C17.1178 21.1867 19.214 21.7949 19.214 21.7949C19.214 21.7949 18.3559 22.3555 17.6408 22.367V22.3656Z" fill="#FEFEFE"/>
</g>
<defs>
<clipPath id="clip0_5933_80922">
<rect width="64" height="38.4289" fill="white" transform="translate(0 1)"/>
</clipPath>
</defs>
</svg>
