<svg width="64" height="40" viewBox="0 0 64 40" fill="none" xmlns="http://www.w3.org/2000/svg">
<rect width="64" height="40" rx="6" fill="#005792"/>
<g clip-path="url(#clip0_5225_282)">
<path d="M13.6592 14.1549H7V25.7688H12.4114V22.4472H13.6592C16.8332 22.4472 18.8324 20.8141 18.8324 18.301C18.8324 15.7879 16.8332 14.1549 13.6592 14.1549ZM12.6322 20.6314H12.4122V15.9714H12.6322C13.5496 15.9714 14.1001 16.5949 14.1001 18.3018C14.1001 20.0087 13.5496 20.6314 12.6322 20.6314ZM24.556 15.8618C21.6394 15.8618 19.5298 17.3114 19.2542 20.0453C20.0429 19.1096 21.1072 18.7792 22.2994 18.7792C23.4916 18.7792 24.2256 19.3296 24.3542 20.2653L22.9047 20.394C20.5568 20.614 18.9237 21.7148 18.9237 23.5314C18.9237 24.9809 20.0246 26.1366 21.7307 26.1366C22.8681 26.1366 23.8403 25.7148 24.3542 24.6322V25.7696H29.4908V20.3391C29.4908 17.5504 27.5647 15.8626 24.556 15.8626V15.8618ZM24.3542 23.6775C24.2629 23.7506 24.0977 23.8062 23.9325 23.8062C23.3638 23.8062 22.9785 23.2557 22.9785 22.6688C22.9785 22.0818 23.2168 21.5496 24.1707 21.2375L24.3542 21.2192V23.6775ZM37.2867 19.6044L34.7188 18.394C34.2414 18.1739 34.0397 17.9539 34.0397 17.6235C34.0397 17.3114 34.3145 17.0913 34.7736 17.0913C35.7823 17.0913 37.3971 18.0635 38.7728 19.807V16.8531C37.7641 16.1557 36.3884 15.8626 34.7005 15.8626C32.1874 15.8626 30.4813 17.3852 30.4813 19.3304C30.4813 20.6513 31.1421 21.4956 32.2422 22.0087L34.884 23.2009C35.4344 23.4392 35.6362 23.7148 35.6362 24.0635C35.6362 24.3757 35.3979 24.687 34.8657 24.687C33.8379 24.687 31.8935 23.3479 30.6831 21.807V25.0723C32.0039 25.7879 33.5266 26.1366 35.104 26.1366C37.5806 26.1366 39.2684 24.6322 39.2684 22.5592C39.2684 21 38.6449 20.2295 37.2875 19.6052L37.2867 19.6044ZM45.3216 13L40.185 17.1279V22.467C40.185 24.5949 41.5424 26.1366 43.8538 26.1366C46.5869 26.1366 47.9078 24.3384 47.9451 21.8435C47.6513 22.1374 47.3034 22.3391 46.6243 22.3391C45.8538 22.3391 45.3216 21.9174 45.3216 21.1096V18.1557H47.9634V16.2295H45.3216V13ZM55.4844 19.6044L52.9165 18.394C52.4392 18.1739 52.2374 17.9539 52.2374 17.6235C52.2374 17.3114 52.5123 17.0913 52.9713 17.0913C53.9801 17.0913 55.5949 18.0635 56.9705 19.807V16.8531C55.9618 16.1557 54.5861 15.8626 52.8983 15.8626C50.3852 15.8626 48.6791 17.3852 48.6791 19.3304C48.6791 20.6513 49.3399 21.4956 50.44 22.0087L53.0817 23.2009C53.6322 23.4392 53.8339 23.7148 53.8339 24.0635C53.8339 24.3757 53.5956 24.687 53.0635 24.687C52.0357 24.687 50.0913 23.3479 48.8808 21.807V25.0723C50.2017 25.7879 51.7243 26.1366 53.3018 26.1366C55.7783 26.1366 57.4662 24.6322 57.4662 22.5592C57.4662 21 56.8427 20.2295 55.4852 19.6052L55.4844 19.6044Z" fill="white"/>
</g>
<defs>
<clipPath id="clip0_5225_282">
<rect width="50.4654" height="13.1366" fill="white" transform="translate(7 13)"/>
</clipPath>
</defs>
</svg>
