<svg width="64" height="40" fill="none" xmlns="http://www.w3.org/2000/svg"><rect width="64" height="40" rx="6" fill="#EB3323"/><path d="M16.838 24.285v-3.12h-2.652v3.12H12.16l2.46 2.46a1.265 1.265 0 0 0 1.787 0l2.46-2.46H16.84Zm-6.003-1.326v-6.707l-2.46 2.46a1.254 1.254 0 0 0 0 1.787l2.46 2.46Zm3.341-8.031v3.117h2.662v-3.117h2.028L16.4 12.463a1.266 1.266 0 0 0-1.788 0l-2.453 2.465h2.017Zm8.476 3.784-2.46-2.46v6.707l2.46-2.46a1.266 1.266 0 0 0 0-1.787ZM34.087 12.096v6.488h-2.84l-1.67-4.947h-.097v4.947h-1.72v-4.803h-.92v-1.685h3.26a.718.718 0 0 1 .418.13c.12.082.208.201.25.34l1.502 4.477h.096v-4.947h1.721ZM35.648 17.026a3.26 3.26 0 0 1-.453-1.702 3.235 3.235 0 0 1 .455-1.687 3.301 3.301 0 0 1 1.232-1.2 3.64 3.64 0 0 1 3.456 0c.508.282.931.697 1.224 1.2a3.29 3.29 0 0 1 .447 1.687 3.314 3.314 0 0 1-.447 1.702 3.27 3.27 0 0 1-1.224 1.21 3.565 3.565 0 0 1-3.456 0 3.341 3.341 0 0 1-1.234-1.21Zm4.477-1.702a1.5 1.5 0 0 0-.439-1.094 1.44 1.44 0 0 0-1.07-.447 1.498 1.498 0 0 0-1.095.439 1.484 1.484 0 0 0-.447 1.102 1.543 1.543 0 0 0 .447 1.12 1.46 1.46 0 0 0 1.094.453 1.431 1.431 0 0 0 1.071-.453 1.551 1.551 0 0 0 .439-1.12ZM44.428 18.584l-2.343-6.488h1.98l1.67 4.834h.098l1.681-4.834h1.932l-2.374 6.488h-2.644ZM54.03 18.584l-.405-1.184h-2.63l-.417 1.184h-1.913l2.531-6.488h2.318l2.506 6.488h-1.99Zm-2.506-2.644h1.606l-.746-2.173h-.098l-.762 2.173ZM33.671 22.777a1.978 1.978 0 0 1-.657 1.558 2.533 2.533 0 0 1-1.744.585H29.6v2.205H27.75v-4.803h-.925v-1.685h4.444a2.522 2.522 0 0 1 1.744.585 1.977 1.977 0 0 1 .657 1.555Zm-2.06.456a.585.585 0 0 0 0-.836.67.67 0 0 0-.47-.163h-1.542v1.168h1.541a.668.668 0 0 0 .47-.17ZM34.701 25.567a3.396 3.396 0 0 1 0-3.389 3.301 3.301 0 0 1 1.232-1.2 3.623 3.623 0 0 1 3.456 0c.513.28.94.695 1.234 1.2a3.34 3.34 0 0 1-1.223 4.594 3.564 3.564 0 0 1-3.456 0 3.34 3.34 0 0 1-1.243-1.205Zm4.477-1.702a1.508 1.508 0 0 0-.438-1.096 1.444 1.444 0 0 0-1.072-.445 1.504 1.504 0 0 0-1.094.439 1.48 1.48 0 0 0-.444 1.102 1.538 1.538 0 0 0 .444 1.128 1.475 1.475 0 0 0 1.095.453 1.43 1.43 0 0 0 1.075-.453 1.554 1.554 0 0 0 .434-1.128ZM41.68 25.08h1.915c.16.38.568.569 1.215.569.268.011.536-.033.787-.13.19-.085.284-.209.284-.34a.405.405 0 0 0-.292-.382 4.594 4.594 0 0 0-1.136-.21c-.835-.084-1.479-.311-1.93-.68a1.723 1.723 0 0 1-.68-1.395 1.67 1.67 0 0 1 .787-1.434c.523-.364 1.212-.546 2.067-.546a3.604 3.604 0 0 1 2.118.577 2.248 2.248 0 0 1 .964 1.566h-2.088a.654.654 0 0 0-.338-.397 1.462 1.462 0 0 0-.672-.138c-.638 0-.957.147-.957.439 0 .14.092.244.276.309.312.088.633.142.956.16.919.089 1.615.31 2.088.667a1.8 1.8 0 0 1-.108 2.949c-.557.37-1.287.554-2.19.553a3.55 3.55 0 0 1-2.068-.568 2.338 2.338 0 0 1-.998-1.568ZM54.417 22.454h-2.189v4.671h-1.85v-4.671H48.19v-1.817h6.227v1.817Z" fill="#fff"/></svg>