<svg width="64" height="40" viewBox="0 0 64 40" fill="none" xmlns="http://www.w3.org/2000/svg">
<rect width="64" height="40" rx="6" fill="#FF6600"/>
<path d="M13.6216 17.8592C11.5249 17.8592 10 19.3841 10 21.3539C10 23.3235 11.5249 24.8486 13.6216 24.8486C15.7184 24.8486 17.2433 23.3235 17.2433 21.3539C17.2433 19.3841 15.7184 17.8592 13.6216 17.8592ZM13.6216 23.5142C12.4144 23.5142 11.5249 22.6246 11.5249 21.3539C11.5249 20.083 12.4144 19.1935 13.6216 19.1935C14.8289 19.1935 15.7184 20.083 15.7184 21.3539C15.7184 22.6246 14.8289 23.5142 13.6216 23.5142ZM26.6256 17.8592C24.8465 17.8592 24.2747 19.1935 24.2747 19.1935H24.2112C24.2112 19.1935 23.7664 17.8592 22.1144 17.8592C20.653 17.8592 20.0812 19.0665 20.0812 19.0665H20.0177L19.9542 18.0497H18.5563V24.6579H20.0177V21.0998C20.0177 19.956 20.8437 19.1935 21.7332 19.1935C22.5592 19.1935 23.0675 19.6384 23.0675 20.655V24.6579H24.5289V21.0998C24.5289 19.956 25.3548 19.1935 26.2444 19.1935C27.0704 19.1935 27.5787 19.6384 27.5787 20.655V24.6579H29.0401V20.5914C29.0401 18.8759 28.087 17.8592 26.6256 17.8592ZM34.5687 17.8592C32.9802 17.8592 32.4084 19.0665 32.4084 19.0665H32.3449L32.2813 18.0497H30.8835V24.6579H32.3449V21.0998C32.3449 20.0195 33.2345 19.1935 34.251 19.1935C35.1405 19.1935 35.7124 19.7018 35.7124 20.655V24.6579H37.1737V20.5914C37.1737 18.8759 36.1571 17.8592 34.5687 17.8592ZM39.017 24.6579H40.4785V18.0497H39.017L39.017 24.6579ZM39.7413 15C39.2712 15 38.89 15.3176 38.89 15.8641C38.89 16.3979 39.2712 16.7155 39.7413 16.7155C40.2243 16.7155 40.6055 16.3979 40.6055 15.8641C40.6055 15.3176 40.2243 15 39.7413 15ZM45.1804 22.561H45.1169L43.1473 18.0498H41.6223L44.4816 24.6579H45.8159L48.6751 18.0498H47.1502L45.1804 22.561ZM52.1407 17.8592C50.4633 17.8592 49.5032 18.6908 49.5032 18.6908V20.0252H49.6938C49.6938 20.0252 50.4888 19.1935 51.9501 19.1935C52.9667 19.1935 53.5386 19.7018 53.5386 20.5914V21.1632C53.5386 21.1632 52.8397 20.7185 51.6324 20.7185C50.044 20.7185 49.1545 21.608 49.1545 22.8534C49.1545 23.959 50.044 24.8485 51.3783 24.8485C53.0303 24.8485 53.4751 23.6412 53.4751 23.6412H53.5386L53.6021 24.6579H55V20.5278C55 18.8759 53.9834 17.8592 52.1407 17.8592ZM51.696 23.5776C51.0606 23.5776 50.6794 23.26 50.6794 22.6883C50.6794 22.1163 51.1241 21.7352 51.8866 21.7352C53.0303 21.7352 53.5386 22.1799 53.5386 22.1799C53.5386 22.1799 53.2209 23.5776 51.696 23.5776Z" fill="white"/>
</svg>
