<svg width="64" height="40" viewBox="0 0 64 40" fill="none" xmlns="http://www.w3.org/2000/svg">
<rect width="64" height="40" rx="6" fill="#D81E04"/>
<g clip-path="url(#clip0_6223_3131)">
<path d="M41.3472 35.8601C41.2015 35.8601 41.0539 35.8471 40.9082 35.8212L18.2181 31.821C17.5565 31.7032 16.9808 31.337 16.5957 30.7862C16.2105 30.2365 16.0628 29.5699 16.1796 28.9084L20.1798 6.2183C20.3923 5.01395 21.432 4.14087 22.6533 4.14087C22.799 4.14087 22.9467 4.15384 23.0914 4.17978L45.7824 8.17998C46.444 8.29673 47.0197 8.66392 47.4049 9.21371C47.79 9.7645 47.9387 10.431 47.821 11.0926L43.8198 33.7827C43.6082 34.986 42.5675 35.8601 41.3472 35.8601Z" fill="white"/>
<path d="M41.0148 35.2145L18.3248 31.2133C17.293 31.0317 16.6036 30.0469 16.7861 29.0152L20.7873 6.3261C20.9689 5.29437 21.9528 4.60388 22.9845 4.78648L45.6746 8.78768C46.7063 8.97028 47.3948 9.95411 47.2132 10.9858L43.212 33.6759C43.0294 34.7077 42.0456 35.3961 41.0138 35.2155L41.0148 35.2145Z" fill="#D81E04"/>
<path d="M23.6412 18.3117C24.1351 18.3117 24.5652 17.8777 24.5652 17.3858C24.5652 16.83 24.1341 16.4588 23.6402 16.4588C23.0834 16.4588 22.6494 16.83 22.6494 17.3858C22.6494 17.8777 23.0834 18.3117 23.6402 18.3117H23.6412ZM38.2211 15.0998H39.5801L41.1247 17.4476C41.1247 17.1373 41.0629 16.8919 41.0629 16.7043V15.0998H42.4837V19.6089H41.1237L39.5791 17.261C39.642 17.5095 39.642 17.756 39.641 17.9416V19.6089H38.2201V15.0998H38.2211ZM34.3925 15.0998H37.5416V16.2114H35.8104V16.7681H36.7374V17.8178H35.8104V18.3726H37.7262V19.6089H34.3925V15.0998ZM30.8683 15.0998H32.4767V18.3726H33.8976V19.6089H30.8683V15.0998ZM26.4809 15.0998H28.3349C29.5103 15.0998 30.1279 15.6566 30.1279 16.6444C30.1279 17.26 29.7577 17.6941 29.2628 17.756L30.4372 19.6089H28.6452L27.9048 18.1271V19.6089H26.4819V15.0998H26.4809ZM23.6412 14.9761C24.9373 14.9761 25.988 16.0866 25.988 17.3858C25.988 18.6849 24.9363 19.7336 23.6412 19.7336C22.2812 19.7336 21.2295 18.6819 21.2295 17.3858C21.2295 16.0866 22.2812 14.9761 23.6422 14.9761H23.6412ZM28.706 16.7043C28.706 16.396 28.5205 16.2104 28.1503 16.2104H27.9038V17.2002H28.1503C28.5205 17.2002 28.706 17.0136 28.706 16.7033V16.7043ZM24.6959 22.5514C24.7238 22.8278 24.7198 23.2459 24.6959 23.5233C24.632 24.3335 24.0882 24.9112 23.2041 24.9112C22.9387 24.9112 22.6334 24.8354 22.4418 24.7486V25.4929C22.4418 25.7564 22.2293 25.9649 21.9798 25.9649C21.7124 25.9649 21.5169 25.7554 21.5169 25.4929V21.843C21.5169 21.7422 21.5438 21.6743 21.6326 21.6135C21.8551 21.4548 22.3909 21.1784 23.0864 21.1784C23.9804 21.1784 24.623 21.7422 24.6959 22.5524V22.5514ZM22.4408 22.2571V23.8615C22.5516 23.9354 22.826 24.0292 23.1064 24.0292C23.5244 24.0292 23.7549 23.7827 23.7809 23.3816C23.7978 23.1381 23.7978 22.9186 23.7809 22.716C23.747 22.3269 23.5105 22.0575 23.0744 22.0575C22.8519 22.0575 22.5646 22.1603 22.4398 22.2571H22.4408ZM28.2341 22.5514V24.2427C28.2341 24.3944 28.1932 24.4792 28.0724 24.563C27.8829 24.6877 27.4109 24.9272 26.6476 24.9272C25.6657 24.9272 25.2237 24.3944 25.2237 23.7588C25.2237 23.182 25.6178 22.6622 26.5697 22.6622C26.8701 22.6622 27.1165 22.6991 27.353 22.7669V22.5205C27.353 22.1832 27.1874 21.9976 26.7214 21.9976C26.5089 21.9976 26.2664 22.0545 26.0838 22.1194C25.989 22.1453 25.9152 22.1593 25.8443 22.1593C25.6238 22.1593 25.4452 21.9767 25.4452 21.7711C25.4452 21.6334 25.4951 21.4608 25.7456 21.359C25.9311 21.2792 26.2993 21.1774 26.7204 21.1774C27.7032 21.1774 28.2331 21.5995 28.2331 22.5504L28.2341 22.5514ZM26.0938 23.7388C26.0938 24.0471 26.3333 24.1948 26.6985 24.1948C26.9948 24.1948 27.2343 24.091 27.353 24.0092V23.3846C27.1235 23.3187 26.9309 23.2808 26.6905 23.2808C26.2824 23.2808 26.0928 23.4893 26.0928 23.7388H26.0938ZM31.9759 22.2002C31.9759 22.4466 31.7723 22.6452 31.5268 22.6452C31.3812 22.6452 31.2335 22.5564 31.1616 22.4387C31.0259 22.1722 30.7905 22.0565 30.4961 22.0565C30.081 22.0565 29.8246 22.3 29.7837 22.7021C29.7677 22.8837 29.7707 23.201 29.7877 23.3806C29.8286 23.7947 30.088 24.0451 30.4961 24.0451C30.7895 24.0451 31.0259 23.9304 31.1616 23.663C31.2325 23.5452 31.3812 23.4574 31.5268 23.4574C31.7733 23.4574 31.9759 23.657 31.9759 23.9024C31.9759 24.3924 31.3442 24.9252 30.4692 24.9252C29.5941 24.9252 28.9405 24.3175 28.8727 23.5013C28.8487 23.2579 28.8487 22.8567 28.8727 22.5634C28.9236 21.7572 29.5891 21.1764 30.4692 21.1764C31.3492 21.1764 31.9759 21.7093 31.9759 22.1992V22.2002ZM35.2736 21.7472C35.2736 21.8649 35.2327 22.0006 35.1349 22.1194L33.5284 24.0022H34.8046C35.068 24.0022 35.2776 24.1708 35.2776 24.4353C35.2776 24.6847 35.068 24.8633 34.8046 24.8633H32.9038C32.5705 24.8633 32.358 24.6508 32.358 24.3614C32.358 24.2437 32.3979 24.105 32.4957 23.9892L34.1032 22.0964H32.9078C32.6524 22.0964 32.4358 21.9378 32.4358 21.6773C32.4358 21.4239 32.6454 21.2413 32.9078 21.2413H34.7278C35.0621 21.2413 35.2746 21.4538 35.2746 21.7472H35.2736ZM36.8242 21.6534V22.5973H36.891C37.0357 22.5973 37.0966 22.5764 37.2293 22.4426L38.2351 21.3999C38.3598 21.2652 38.4845 21.2183 38.6093 21.2183C38.8667 21.2183 39.0722 21.4269 39.0722 21.6793C39.0722 21.7981 39.0383 21.9088 38.9096 22.0335L37.8908 23.0054L38.9296 24.082C39.0413 24.1998 39.0842 24.3115 39.0842 24.4333C39.0842 24.6857 38.8787 24.8913 38.6262 24.8913C38.4975 24.8913 38.3688 24.8414 38.275 24.7326L37.2492 23.626C37.1215 23.4873 37.0567 23.4744 36.925 23.4744H36.8242V24.4193C36.8242 24.6827 36.6246 24.8953 36.3622 24.8953C36.1157 24.8953 35.9032 24.6757 35.9032 24.4183V21.6514C35.9032 21.384 36.0988 21.1754 36.3622 21.1754C36.6256 21.1754 36.8242 21.384 36.8242 21.6514V21.6534ZM42.4847 22.5514V24.2427C42.4847 24.3944 42.4448 24.4792 42.3231 24.563C42.1335 24.6877 41.6615 24.9272 40.8982 24.9272C39.9164 24.9272 39.4734 24.3944 39.4734 23.7588C39.4734 23.182 39.8685 22.6622 40.8204 22.6622C41.1217 22.6622 41.3682 22.6991 41.6037 22.7669V22.5205C41.6037 22.1832 41.438 21.9976 40.9721 21.9976C40.7595 21.9976 40.5171 22.0545 40.3345 22.1194C40.2397 22.1453 40.1658 22.1593 40.095 22.1593C39.8755 22.1593 39.6959 21.9767 39.6959 21.7711C39.6959 21.6334 39.7468 21.4608 39.9972 21.359C40.1828 21.2792 40.55 21.1774 40.9721 21.1774C41.9539 21.1774 42.4847 21.5995 42.4847 22.5504V22.5514ZM40.3444 23.7388C40.3444 24.0471 40.5839 24.1958 40.9491 24.1958C41.2455 24.1958 41.4859 24.091 41.6037 24.0092V23.3846C41.3742 23.3177 41.1816 23.2808 40.9421 23.2808C40.534 23.2808 40.3444 23.4903 40.3444 23.7388Z" fill="white"/>
</g>
<defs>
<clipPath id="clip0_6223_3131">
<rect width="40.002" height="40" fill="white" transform="translate(12)"/>
</clipPath>
</defs>
</svg>
