<svg width="64" height="40" viewBox="0 0 64 40" fill="none" xmlns="http://www.w3.org/2000/svg">
<rect width="64" height="40" rx="6" fill="#F6F8FC"/>
<path d="M47.9686 19.5921C47.7365 19.4486 47.4771 19.341 47.2345 19.2535C46.7884 19.0985 46.5764 18.9824 46.5764 18.7293C46.5764 18.5152 46.7778 18.3697 47.0594 18.3697C47.3473 18.3697 47.6363 18.4741 47.8694 18.7072L48.6267 17.8919C48.1805 17.4742 47.7059 17.2433 47.0605 17.2433C46.3812 17.2433 45.4679 17.7769 45.4679 18.7673C45.4679 19.1006 45.5818 19.3716 45.759 19.591L47.9686 19.5921ZM49.6571 19.5921H50.8225V18.3602H51.8899V17.3403H50.8225V15.5937H49.6571V17.3403H48.7838V18.3602H49.6571V19.5921ZM53.3654 17.3403H52.2V19.591H53.3654V17.3403ZM44.0947 19.8821C44.063 20.6605 43.5114 21.2184 42.7394 21.2184C41.9674 21.2184 41.4158 20.6605 41.3831 19.8821H40.2166C40.2535 21.2469 41.3557 22.3353 42.7384 22.3353C44.1221 22.3353 45.2232 21.2469 45.2612 19.8821H44.0947ZM48.2923 19.8821H46.0068C46.2473 20.0487 46.6312 20.2417 46.8738 20.3356C47.3495 20.5191 47.5309 20.6183 47.5309 20.8535C47.5309 21.0813 47.2714 21.2089 46.9613 21.2089C46.5732 21.2089 46.3011 21.0633 46.029 20.8208L45.2517 21.5875C45.7084 22.0442 46.164 22.3353 46.9603 22.3353C47.8167 22.3353 48.6973 21.731 48.6973 20.8208C48.6995 20.4137 48.5349 20.112 48.2923 19.8821ZM49.6571 22.2372H50.8225V19.8821H49.6571V22.2372ZM52.2 22.2372H53.3654V19.8821H52.2V22.2372ZM35.9335 19.5921C35.9989 18.8548 36.5568 18.3602 37.2941 18.3602C38.0313 18.3602 38.5892 18.8685 38.6652 19.5921H39.8338C39.7504 18.2431 38.74 17.2433 37.3911 17.2433C36.7446 17.2433 36.232 17.4827 35.9335 17.798H35.9145V17.3392H34.7491V19.5899L35.9335 19.5921ZM38.6715 19.8821C38.6398 20.6605 38.0671 21.2184 37.2941 21.2184C36.521 21.2184 35.9536 20.671 35.9261 19.8821H34.748V24.471H35.9135V21.789H35.9325C36.2468 22.1096 36.7024 22.3342 37.3479 22.3342C38.7316 22.3342 39.8021 21.2912 39.8369 19.881L38.6715 19.8821ZM41.3894 19.5921C41.4643 18.8685 42.0011 18.3602 42.7384 18.3602C43.4756 18.3602 44.0124 18.8685 44.0873 19.5921H45.2559C45.1673 18.2769 44.0863 17.2433 42.7384 17.2433C41.3905 17.2433 40.3105 18.2758 40.2208 19.5921H41.3894ZM52.0249 16.66C52.1641 16.7708 52.2854 16.8783 52.4151 16.8783C52.4721 16.8783 52.5164 16.8636 52.5427 16.8425C52.2748 16.7613 52.104 16.5324 52.104 16.331C52.104 16.1411 52.2358 15.9914 52.4436 15.9914C52.5702 15.9914 52.6746 16.0483 52.7421 16.1232C52.8233 15.8015 53.0079 15.6233 53.2156 15.6233C53.4065 15.6233 53.5099 15.7741 53.5099 15.9724C53.5099 16.235 53.2631 16.6453 52.9794 16.8035C53.01 16.8456 53.0648 16.8762 53.1386 16.8762C53.3875 16.8762 53.6164 16.6505 53.7609 16.4786C53.7894 16.4449 53.8252 16.4322 53.86 16.4322C53.9233 16.4322 53.9771 16.4807 53.9771 16.5503C53.9771 16.5778 53.9676 16.6083 53.9455 16.6347C53.8073 16.7992 53.5162 17.1178 53.1439 17.1178C52.9794 17.1178 52.8581 17.0408 52.7874 16.9353C52.6946 17.0408 52.5596 17.1178 52.4067 17.1178C52.2485 17.1178 52.0787 17.0039 51.9352 16.8942C51.8635 16.8393 51.7981 16.7855 51.7454 16.7433C51.6905 16.7012 51.6536 16.678 51.6346 16.6769C51.5429 16.6758 51.5007 16.621 51.5007 16.5546C51.5007 16.4934 51.5513 16.4354 51.6346 16.4354C51.6948 16.4354 51.758 16.4639 51.8245 16.506C51.8878 16.5503 51.9553 16.6052 52.0249 16.66ZM52.4425 16.2339C52.3782 16.2339 52.3423 16.2793 52.3423 16.3415C52.3423 16.4955 52.5005 16.5957 52.6798 16.6252C52.683 16.6073 52.6851 16.5883 52.6851 16.5693C52.6851 16.3911 52.5754 16.2339 52.4425 16.2339ZM53.1861 15.8595C53.1007 15.8595 52.9287 16.0008 52.9235 16.5662C53.1017 16.428 53.2715 16.138 53.2715 15.9671C53.2715 15.8996 53.2504 15.8595 53.1861 15.8595Z" fill="#FF7D00"/>
<path d="M12.49 19.591C12.2643 19.457 12.0175 19.3537 11.7844 19.2693C11.334 19.1122 11.0988 18.9951 11.0988 18.7409C11.0988 18.5257 11.373 18.3791 11.6082 18.3791C11.9215 18.3791 12.2548 18.5068 12.49 18.7409L13.2536 17.9182C12.8032 17.4974 12.2938 17.2422 11.6082 17.2422C10.9227 17.2422 10.002 17.7811 10.002 18.7799C10.002 19.1058 10.1095 19.3727 10.2804 19.591H12.49Z" fill="#005DC0"/>
<path d="M15.2228 19.5911V19.397C15.2228 18.8781 15.575 18.3687 16.2511 18.3687C16.8386 18.3687 17.1813 18.819 17.1813 19.397V19.5911H18.3562V19.358C18.3562 18.8591 18.718 18.3687 19.3846 18.3687C19.972 18.3687 20.3148 18.819 20.3148 19.397V19.5911H21.4897V19.319C21.4897 17.9974 20.8632 17.2433 19.6388 17.2433C18.757 17.2433 18.2096 17.7422 18.0135 17.9974H17.9934C17.7393 17.5471 17.2393 17.2433 16.6223 17.2433C15.9273 17.2433 15.4569 17.5661 15.2418 17.8013H15.2217V17.3414H14.0479V19.5921H15.2228V19.5911Z" fill="#005DC0"/>
<path d="M31.9413 19.5911H33.1162V18.3687H34.193V17.3404H33.1162V15.578H31.9413V17.3404H31.0596V18.3687H31.9413V19.5911Z" fill="#005DC0"/>
<path d="M29.0765 19.5911C29.1008 19.0785 29.4393 18.4172 30.2493 18.4172H30.5921V17.2433C29.7789 17.2433 29.3096 17.5471 29.0934 17.8508H29.0734V17.3414H27.8984V19.5921H29.0765V19.5911Z" fill="#005DC0"/>
<path d="M23.2837 19.591C23.367 18.8727 23.9049 18.3686 24.6421 18.3686C25.3794 18.3686 25.9088 18.8727 25.9911 19.591H27.1882V17.3403H26.0132V17.7811H25.9932C25.5914 17.4479 25.1115 17.2422 24.5441 17.2422C23.1909 17.2422 22.1942 18.2737 22.1035 19.591H23.2837Z" fill="#005DC0"/>
<path d="M12.8733 19.8811H10.573C10.8261 20.0794 11.132 20.2196 11.421 20.3177C11.8418 20.4548 12.0865 20.5719 12.0865 20.8366C12.0865 21.0328 11.7933 21.1984 11.5085 21.1984C11.1172 21.1984 10.843 21.0518 10.5688 20.8071L9.78516 21.5802C10.245 22.04 10.7059 22.3343 11.5085 22.3343C12.2531 22.3343 13.2614 21.7953 13.2614 20.8071C13.2625 20.4095 13.1064 20.1121 12.8733 19.8811Z" fill="#005DC0"/>
<path d="M29.0743 19.8811H27.8994V22.2362H29.0743V19.8811Z" fill="#005DC0"/>
<path d="M33.1163 19.8811H31.9414V22.2362H33.1163V19.8811Z" fill="#005DC0"/>
<path d="M15.2228 19.8811H14.0479V22.2362H15.2228V19.8811Z" fill="#005DC0"/>
<path d="M25.9989 19.8811C25.9589 20.6552 25.4146 21.2089 24.6416 21.2089C23.8695 21.2089 23.3158 20.6552 23.2747 19.8811H22.0977C22.142 21.248 23.1545 22.3343 24.5435 22.3343C25.112 22.3343 25.5918 22.1286 25.9926 21.8059H26.0127V22.2362H27.1876V19.8811H25.9989Z" fill="#005DC0"/>
<path d="M18.3566 19.8811H17.1816V22.2362H18.3566V19.8811Z" fill="#005DC0"/>
<path d="M21.4894 19.8811H20.3145V22.2362H21.4894V19.8811Z" fill="#005DC0"/>
</svg>
