<svg width="64" height="40" viewBox="0 0 64 40" fill="none" xmlns="http://www.w3.org/2000/svg">
<rect width="64" height="40" rx="6" fill="url(#paint0_linear_4524_310)"/>
<path d="M12.4093 20.7212C12.4093 21.3755 12.2187 21.8905 11.8229 22.3081C11.4271 22.7118 10.958 22.9206 10.357 22.9206C9.82924 22.9206 9.40412 22.7536 9.03764 22.4195C8.68582 22.0854 8.49525 21.6399 8.49525 21.0414V17.1577H7V21.3615C7 22.2385 7.30785 22.9624 7.93819 23.4913C8.55388 24.0203 9.30151 24.2848 10.1517 24.2848C10.7235 24.2848 11.2512 24.1595 11.691 23.895C11.9548 23.7419 12.1894 23.5609 12.3946 23.3521V24.1734H13.8899V17.1577H12.3946V20.7212H12.4093Z" fill="black"/>
<path d="M19.1239 17.0184C18.5521 17.0184 18.0391 17.1437 17.5846 17.3943C17.3208 17.5474 17.0862 17.7284 16.881 17.9372V17.1298H15.3857V24.1456H16.881V20.5681C16.881 19.9138 17.0716 19.3988 17.4674 18.9812C17.8632 18.5636 18.3323 18.3687 18.9186 18.3687C19.4464 18.3687 19.8861 18.5357 20.238 18.8559C20.5898 19.1761 20.7657 19.6354 20.7657 20.2618V24.1456H22.2609V19.9277C22.2609 19.0647 21.9531 18.3408 21.3228 17.798C20.7217 17.2829 19.9741 17.0184 19.1239 17.0184Z" fill="black"/>
<path d="M30.1911 19.9973C29.3701 19.8442 28.8131 19.691 28.5346 19.5797C28.4026 19.524 28.3147 19.4544 28.256 19.3848C28.1974 19.3152 28.1827 19.2317 28.1681 19.1203C28.1681 18.995 28.1974 18.8976 28.2707 18.8141C28.3293 18.7166 28.432 18.6331 28.5932 18.5496C28.9011 18.3825 29.2529 18.299 29.6633 18.299C30.4696 18.299 31.3345 18.5774 32.2727 19.1482L32.5512 19.3152V17.8397L32.4633 17.784C31.5251 17.2689 30.5869 17.0045 29.6487 17.0045C28.8864 17.0045 28.1974 17.1854 27.611 17.5613C27.3179 17.7422 27.0833 17.9789 26.922 18.2433C26.7608 18.5078 26.6875 18.8002 26.6875 19.1342C26.6875 19.691 26.9367 20.1504 27.4205 20.4567C27.8896 20.7629 28.5785 20.9995 29.5021 21.1944C30.2204 21.3475 30.7335 21.5007 30.9827 21.6538C31.1146 21.7234 31.2026 21.8069 31.2612 21.8904C31.3198 21.9739 31.3345 22.0436 31.3345 22.141V22.1549C31.3345 22.2663 31.3052 22.3498 31.2465 22.4472C31.1879 22.5308 31.0999 22.6282 30.9827 22.7117C30.7335 22.8788 30.367 22.9762 29.8686 22.9762C29.2969 22.9762 28.7691 22.8648 28.256 22.6421C27.743 22.4194 27.3179 22.141 27.01 21.8347L26.6875 21.5285V23.2268L26.7755 23.2824C27.7869 23.9228 28.8278 24.2569 29.8832 24.2569C30.6895 24.2569 31.3931 24.0759 31.9355 23.714C32.4926 23.352 32.7858 22.7952 32.7858 22.1271C32.7858 21.612 32.5659 21.1527 32.1554 20.7907C31.7743 20.4427 31.0999 20.1783 30.1911 19.9973Z" fill="black"/>
<path d="M41.2433 20.1226C41.1113 19.2457 40.6862 18.494 39.9972 17.9093C39.2936 17.3108 38.4726 17.0184 37.5345 17.0184C36.4936 17.0184 35.5848 17.3664 34.8518 18.0624C34.1188 18.7585 33.7377 19.6215 33.7524 20.6238C33.7524 21.6121 34.1188 22.4751 34.8518 23.1851C35.5848 23.895 36.4936 24.2569 37.5345 24.243C38.2528 24.243 38.9271 24.062 39.5574 23.728C40.1878 23.3799 40.6569 22.9206 40.9647 22.3359L41.0673 22.1411L39.704 21.8348L39.6307 21.9323C39.3962 22.2385 39.103 22.4751 38.7365 22.6561C38.37 22.8371 37.9742 22.9206 37.5491 22.9206C36.9334 22.9206 36.4203 22.7396 35.9806 22.3916C35.5994 22.0715 35.3795 21.6817 35.2916 21.1945H41.2433L41.2726 21.0553C41.3019 20.93 41.3165 20.7908 41.3165 20.6516C41.2872 20.4846 41.2726 20.3036 41.2433 20.1226ZM35.2769 19.9973C35.3795 19.5519 35.5994 19.1761 35.9806 18.8559C36.4057 18.494 36.9188 18.313 37.5198 18.313C38.1208 18.313 38.6046 18.494 39.0297 18.8559C39.3962 19.1761 39.6161 19.5519 39.7333 19.9973H35.2769Z" fill="black"/>
<path d="M46.1112 17.0184C45.5394 17.0184 45.0264 17.1437 44.5719 17.3943C44.3081 17.5474 44.0735 17.7284 43.8683 17.9372V17.1298H42.3877V24.1456H43.8829V20.5681C43.8829 19.9138 44.0735 19.3988 44.4693 18.9812C44.8651 18.5636 45.3342 18.3687 45.9206 18.3687C46.4483 18.3687 46.8881 18.5357 47.2399 18.8559C47.5917 19.1761 47.7677 19.6354 47.7677 20.2618V24.1456H49.2629V19.9277C49.2629 19.0647 48.9551 18.3408 48.3247 17.798C47.7237 17.2829 46.9614 17.0184 46.1112 17.0184Z" fill="black"/>
<path d="M56.5045 15V15.181V18.0346C56.27 17.784 56.0061 17.5752 55.6836 17.4082C55.1999 17.1576 54.6721 17.0323 54.0857 17.0323C53.0596 17.0323 52.1654 17.3943 51.4617 18.0903C50.7434 18.7863 50.377 19.6633 50.377 20.6516C50.377 21.626 50.7434 22.489 51.4617 23.199C52.18 23.9089 53.0743 24.2708 54.0857 24.2708C54.6575 24.2708 55.1999 24.1455 55.6836 23.8811C55.9915 23.714 56.27 23.5052 56.5045 23.2686V24.1595H57.9998V15H56.5045ZM55.8742 22.2524C55.4051 22.7118 54.848 22.9345 54.1884 22.9345C53.514 22.9345 52.9716 22.7118 52.5172 22.2663C52.0628 21.807 51.8282 21.2919 51.8282 20.6516C51.8282 19.9973 52.0481 19.4684 52.5172 19.0229C52.9863 18.5775 53.5287 18.3548 54.1884 18.3548C54.8627 18.3548 55.4051 18.5775 55.8742 19.0229C56.3433 19.4823 56.5632 19.9973 56.5632 20.6377C56.5778 21.2641 56.3433 21.793 55.8742 22.2524Z" fill="black"/>
<path d="M26.7034 15.7377H25.2081V16.8792C25.2081 17.0184 25.0908 17.1297 24.9442 17.1297H24.2553C23.9767 17.1297 23.7422 17.3525 23.7422 17.617V24.1455H25.2374V17.4082C25.2374 17.2689 25.3547 17.1576 25.5013 17.1576H26.1756C26.4688 17.1576 26.7034 16.9349 26.7034 16.6565V15.7377Z" fill="black"/>
<defs>
<linearGradient id="paint0_linear_4524_310" x1="68.5879" y1="1.40077" x2="-4.28826" y2="9.8788" gradientUnits="userSpaceOnUse">
<stop stop-color="#CEFF00"/>
<stop offset="0.2826" stop-color="#CFE557"/>
<stop offset="0.5405" stop-color="#D0D09F"/>
<stop offset="0.753" stop-color="#D1C0D3"/>
<stop offset="0.9122" stop-color="#D2B7F3"/>
<stop offset="1" stop-color="#D2B3FF"/>
</linearGradient>
</defs>
</svg>
