<svg width="64" height="40" viewBox="0 0 64 40" fill="none" xmlns="http://www.w3.org/2000/svg">
<rect width="64" height="40" rx="6" fill="#9339F2"/>
<g clip-path="url(#clip0_3535_759)">
<path d="M31.3856 20.3025V22.9521H29.2717V20.6092C29.2717 19.8724 29.0134 19.5369 28.4296 19.5369C27.8266 19.5369 27.5111 19.9109 27.5111 20.6374V22.9522H25.4072V18.1694H26.9096L27.4542 19.1452C27.8266 18.4083 28.487 18.0256 29.3863 18.0256C30.6972 18.0256 31.3856 18.8105 31.3856 20.3025Z" fill="white"/>
<path d="M32.2451 16.0321H34.407V17.576H32.2451V16.0321ZM32.274 18.1691H34.3788V22.9526H32.274V18.1691Z" fill="white"/>
<path d="M39.2469 18.0258C38.4713 18.0258 37.8034 18.3129 37.4013 18.8856V18.8891L37.4001 18.8868L36.9993 18.1696H35.3535V24.4962H37.4574V22.3693C37.8975 22.8479 38.4328 23.0957 39.1795 23.0957C40.6143 23.0957 41.5809 22.0922 41.5809 20.5224C41.5812 19.0217 40.6526 18.0258 39.2469 18.0258ZM38.4241 21.7755C37.811 21.7755 37.4193 21.3266 37.4193 20.6371V20.4653C37.4193 19.7288 37.7918 19.3361 38.414 19.3361C39.0458 19.3361 39.3998 19.767 39.3998 20.5226C39.4 21.2974 39.0359 21.7755 38.4241 21.7755Z" fill="white"/>
<path d="M44.9855 18.0236C43.2998 18.0236 42.1626 18.6758 42.0301 19.8039H44.17C44.2174 19.4314 44.4969 19.2292 44.9727 19.2292C45.4139 19.2292 45.6845 19.4053 45.6845 19.7781V19.9576L43.9903 20.1217C43.2135 20.2071 42.7163 20.3485 42.3907 20.5887C42.0565 20.829 41.8936 21.1725 41.8936 21.623C41.8936 22.532 42.6309 23.0935 43.8571 23.0935C44.7717 23.0935 45.5151 22.7545 45.7757 22.2134V22.2087L45.7769 22.211C45.7782 22.2098 45.7781 22.2075 45.7791 22.2063V22.2155L46.1901 22.9519H47.8077V20.1129C47.8074 18.697 46.9542 18.0236 44.9855 18.0236ZM45.7316 21.1468C45.7316 21.6062 45.3196 21.9182 44.7067 21.9182C44.2947 21.9182 44.0377 21.7383 44.0377 21.4512C44.0377 21.1725 44.2779 21.01 44.8137 20.9324L45.7316 20.829V21.1468Z" fill="white"/>
<path d="M51.4577 21.089L50.6991 21.7758V22.9527H48.5947V16.0172H50.6991V19.8437L52.316 18.1691H54.8415L53.0935 19.8391L54.8801 22.9527H52.555L51.4577 21.089Z" fill="white"/>
<path d="M18.1493 16.0322V22.9527H14.1971L10.1973 16.0322H12.5682L16.0101 22.0253V16.0322H18.1493Z" fill="white"/>
<path d="M24.8074 20.5966C24.8074 18.997 23.8039 18.0112 21.9841 17.9569C21.9314 17.9549 21.8765 17.9542 21.8215 17.9542C21.6539 17.9542 21.4867 17.963 21.3331 17.9842C19.7714 18.1425 18.7891 19.0914 18.7891 20.5105C18.7891 22.0886 20.2465 23.0237 21.9291 23.0237C22.6606 23.0237 23.3531 22.9361 24.1476 22.3269C24.221 22.2712 24.296 22.2101 24.3713 22.1443L23.6238 20.9224C23.5711 20.9835 23.5123 21.0482 23.4463 21.1138C23.1611 21.3951 22.7429 21.6815 22.1222 21.6815C21.4531 21.6815 20.857 21.2814 20.7797 20.8052H24.8076L24.8074 20.5966ZM20.7795 19.8006C20.8267 19.2856 21.1827 19.065 21.7922 19.065C22.3971 19.065 22.7611 19.3506 22.7611 19.8006H20.7795Z" fill="white"/>
</g>
<defs>
<clipPath id="clip0_3535_759">
<rect width="45" height="8.51351" fill="white" transform="translate(10 16)"/>
</clipPath>
</defs>
</svg>
