<svg width="24" height="24" fill="none" xmlns="http://www.w3.org/2000/svg"><mask id="a" style="mask-type:luminance" maskUnits="userSpaceOnUse" x="3" y="3" width="18" height="18"><path d="M20 3H4a1 1 0 0 0-1 1v16a1 1 0 0 0 1 1h16a1 1 0 0 0 1-1V4a1 1 0 0 0-1-1z" fill="#fff"/></mask><g mask="url(#a)"><path d="M20 3H4a1 1 0 0 0-1 1v16a1 1 0 0 0 1 1h16a1 1 0 0 0 1-1V4a1 1 0 0 0-1-1z" stroke="#333" stroke-width="3"/></g><path d="M3 9h17.053" stroke="#333" stroke-width="1.5"/><path d="M12 13h4.737M12 16.5h4.737" stroke="#333" stroke-width="1.5" stroke-linecap="round"/><path d="M8.684 9v11" stroke="#333" stroke-width="1.5"/></svg>