<svg width="25" height="24" fill="none" xmlns="http://www.w3.org/2000/svg"><mask id="a" style="mask-type:luminance" maskUnits="userSpaceOnUse" x="4" y="3" width="18" height="18"><path d="M21 3H5a1 1 0 0 0-1 1v16a1 1 0 0 0 1 1h16a1 1 0 0 0 1-1V4a1 1 0 0 0-1-1z" fill="#fff"/></mask><g mask="url(#a)"><path d="M21 3H5a1 1 0 0 0-1 1v16a1 1 0 0 0 1 1h16a1 1 0 0 0 1-1V4a1 1 0 0 0-1-1z" stroke="#333" stroke-width="3"/></g><path d="M10.727 9.667V9.5a2.5 2.5 0 0 1 5 0v.088a2.588 2.588 0 0 1-2.589 2.589H13V14M13 16.8v.2" stroke="#333" stroke-width="1.5" stroke-linecap="round" stroke-linejoin="round"/></svg>