<svg width="25" height="24" fill="none" xmlns="http://www.w3.org/2000/svg"><g clip-path="url(#a)"><g clip-path="url(#b)" stroke="#333" stroke-width="1.5" stroke-linecap="round"><path d="M20.5 4.75h-16a.25.25 0 0 0-.25.25v14.92c0 .138.112.25.25.25h16a.25.25 0 0 0 .25-.25V5a.25.25 0 0 0-.25-.25z"/><path d="m12.72 8.34 1.12 2.25a.239.239 0 0 0 .18.14l2.49.36a.24.24 0 0 1 .14.42l-1.8 1.76a.23.23 0 0 0-.07.22l.42 2.48a.25.25 0 0 1-.36.26l-2.22-1.17a.26.26 0 0 0-.24 0l-2.22 1.17a.25.25 0 0 1-.37-.26l.43-2.48a.261.261 0 0 0-.07-.22l-1.8-1.76a.24.24 0 0 1 .14-.42l2.48-.36a.24.24 0 0 0 .19-.14l1.11-2.25a.25.25 0 0 1 .45 0z"/></g></g><defs><clipPath id="a"><path fill="#fff" transform="translate(3.5 4)" d="M0 0h18v17H0z"/></clipPath><clipPath id="b"><path fill="#fff" transform="translate(3.5 4)" d="M0 0h18v17H0z"/></clipPath></defs></svg>